<svg xmlns="http://www.w3.org/2000/svg" width="24" height="24" viewBox="0 0 24 24" fill="none">
  <path d="M3.42188 6.71169C4.45898 6.28815 5.94609 5.83142 7.39219 5.68948C8.95078 5.53609 10.2727 5.7616 11.0391 6.55029V17.7064C9.94336 17.0997 8.55469 17.0162 7.27383 17.1421C5.89102 17.2795 4.49648 17.6698 3.42188 18.0704V6.71169ZM12.2109 6.55029C12.9773 5.7616 14.2992 5.53609 15.8578 5.68948C17.3039 5.83142 18.791 6.28815 19.8281 6.71169V18.0704C18.7523 17.6698 17.359 17.2783 15.9762 17.1432C14.6941 17.0162 13.3066 17.0986 12.2109 17.7064V6.55029ZM11.625 5.51549C10.4707 4.54594 8.79727 4.4017 7.27383 4.55051C5.49961 4.72565 3.70898 5.31975 2.59336 5.8154C2.49099 5.86087 2.40419 5.93416 2.34331 6.02651C2.28242 6.11887 2.25003 6.22638 2.25 6.33623V18.9278C2.25003 19.0236 2.27465 19.1178 2.32162 19.2019C2.36859 19.2859 2.4364 19.3571 2.51884 19.4089C2.60128 19.4608 2.69572 19.4916 2.7935 19.4985C2.89128 19.5054 2.98927 19.4883 3.07852 19.4486C4.11211 18.9908 5.77734 18.4402 7.39102 18.2811C9.04219 18.1185 10.4262 18.3807 11.168 19.285C11.2229 19.3518 11.2924 19.4058 11.3715 19.4428C11.4506 19.4799 11.5373 19.4991 11.625 19.4991C11.7127 19.4991 11.7994 19.4799 11.8785 19.4428C11.9576 19.4058 12.0271 19.3518 12.082 19.285C12.8238 18.3807 14.2078 18.1185 15.8578 18.2811C17.4727 18.4402 19.1391 18.9908 20.1715 19.4486C20.2607 19.4883 20.3587 19.5054 20.4565 19.4985C20.5543 19.4916 20.6487 19.4608 20.7312 19.4089C20.8136 19.3571 20.8814 19.2859 20.9284 19.2019C20.9753 19.1178 21 19.0236 21 18.9278V6.33623C21 6.22638 20.9676 6.11887 20.9067 6.02651C20.8458 5.93416 20.759 5.86087 20.6566 5.8154C19.541 5.31975 17.7504 4.72565 15.9762 4.55051C14.4527 4.40056 12.7793 4.54594 11.625 5.51549Z" fill="#000"/>
</svg>
