<svg width="24" height="24" viewBox="0 0 24 24" fill="none" xmlns="http://www.w3.org/2000/svg">
<path d="M11.5487 3.1067C11.7299 2.72713 12.2701 2.72714 12.4513 3.1067L14.4832 7.36489C14.7018 7.82316 15.1375 8.13968 15.6409 8.20604L20.3186 8.82265C20.7355 8.87761 20.9025 9.39145 20.5975 9.68099L17.1756 12.9293C16.8073 13.2789 16.6409 13.791 16.7334 14.2903L17.5924 18.9296C17.669 19.3431 17.2319 19.6607 16.8623 19.4601L12.7155 17.2094C12.2693 16.9672 11.7307 16.9672 11.2845 17.2094L7.13772 19.4601C6.7681 19.6607 6.331 19.3431 6.40757 18.9296L7.26663 14.2903C7.35908 13.791 7.19267 13.2789 6.82441 12.9293L3.40252 9.68099C3.0975 9.39145 3.26446 8.87761 3.68141 8.82265L8.35909 8.20604C8.8625 8.13968 9.29816 7.82316 9.51683 7.36489L11.5487 3.1067Z" stroke="black"/>
<mask id="mask0_17_2458" style="mask-type:alpha" maskUnits="userSpaceOnUse" x="1" y="1" width="22" height="20">
<path d="M12 2.16101L14.7169 7.85473L14.8338 8.09965L15.1028 8.13511L21.3574 8.95959L16.782 13.303L16.5851 13.4898L16.6346 13.7566L17.7832 19.9599L12.2385 16.9506L12 16.8211L11.7615 16.9506L6.21679 19.9599L7.36545 13.7566L7.41486 13.4898L7.21804 13.303L2.64257 8.95959L8.89718 8.13511L9.16623 8.09965L9.2831 7.85473L12 2.16101Z" stroke="black"/>
</mask>
<g mask="url(#mask0_17_2458)">
<circle cx="12" cy="12" r="7.7" fill="black"/>
</g>
</svg>
