<svg width="24" height="24" viewBox="0 0 24 24" fill="none" xmlns="http://www.w3.org/2000/svg">
<path d="M4 6.625C4 6.19402 4.16932 5.7807 4.47072 5.47595C4.77212 5.1712 5.1809 5 5.60714 5H8.56857C9.595 5 10.4543 5.60667 11.0446 6.28267C11.4839 6.78533 12.0143 7.16667 12.5714 7.16667H17.3929C17.8191 7.16667 18.2279 7.33787 18.5293 7.64262C18.8307 7.94736 19 8.36069 19 8.79167V16.375C19 16.806 18.8307 17.2193 18.5293 17.524C18.2279 17.8288 17.8191 18 17.3929 18H5.60714C5.1809 18 4.77212 17.8288 4.47072 17.524C4.16932 17.2193 4 16.806 4 16.375V6.625ZM5.60714 6.08333C5.46506 6.08333 5.3288 6.1404 5.22834 6.24198C5.12787 6.34357 5.07143 6.48134 5.07143 6.625V9.33333H17.9286V8.79167C17.9286 8.64801 17.8721 8.51023 17.7717 8.40865C17.6712 8.30707 17.5349 8.25 17.3929 8.25H12.5714C11.5386 8.25 10.7393 7.56858 10.2421 6.99983C9.75786 6.44517 9.16429 6.08333 8.56857 6.08333H5.60714ZM17.9286 10.4167H5.07143V16.375C5.07143 16.5187 5.12787 16.6564 5.22834 16.758C5.3288 16.8596 5.46506 16.9167 5.60714 16.9167H17.3929C17.5349 16.9167 17.6712 16.8596 17.7717 16.758C17.8721 16.6564 17.9286 16.5187 17.9286 16.375V10.4167Z" fill="#212529"/>
</svg>
