<svg width="246" height="24" viewBox="0 0 246 24" fill="none" xmlns="http://www.w3.org/2000/svg">
<path fill-rule="evenodd" clip-rule="evenodd" d="M18 8.5V18C18 18.5304 17.7893 19.0391 17.4142 19.4142C17.0391 19.7893 16.5304 20 16 20H15V19H16C16.2652 19 16.5196 18.8946 16.7071 18.7071C16.8946 18.5196 17 18.2652 17 18V8.5H15C14.6022 8.5 14.2206 8.34196 13.9393 8.06066C13.658 7.77936 13.5 7.39782 13.5 7V5H8C7.73478 5 7.48043 5.10536 7.29289 5.29289C7.10536 5.48043 7 5.73478 7 6V15H6V6C6 5.46957 6.21071 4.96086 6.58579 4.58579C6.96086 4.21071 7.46957 4 8 4H13.5L18 8.5ZM5.6 15.85H4V19.849H4.791V18.507H5.594C5.881 18.507 6.125 18.45 6.326 18.334C6.529 18.217 6.684 18.059 6.789 17.86C6.89799 17.6512 6.95331 17.4185 6.95 17.183C6.95 16.933 6.897 16.707 6.792 16.506C6.68756 16.3062 6.52789 16.1406 6.332 16.029C6.132 15.909 5.889 15.85 5.6 15.85ZM6.145 17.183C6.1486 17.3148 6.1194 17.4453 6.06 17.563C6.00671 17.6654 5.92377 17.7494 5.822 17.804C5.70559 17.8616 5.57683 17.8897 5.447 17.886H4.788V16.48H5.448C5.666 16.48 5.837 16.54 5.96 16.661C6.083 16.783 6.145 16.957 6.145 17.183ZM7.362 15.85V19.849H8.822C9.223 19.849 9.556 19.769 9.82 19.612C10.0872 19.4522 10.2958 19.2106 10.415 18.923C10.545 18.623 10.611 18.261 10.611 17.839C10.611 17.419 10.546 17.061 10.415 16.764C10.2972 16.4797 10.0906 16.2412 9.826 16.084C9.562 15.928 9.227 15.85 8.821 15.85H7.362ZM8.153 16.495H8.716C8.964 16.495 9.166 16.545 9.325 16.647C9.49004 16.7549 9.61456 16.9146 9.679 17.101C9.758 17.302 9.797 17.553 9.797 17.854C9.8001 18.0534 9.77724 18.2524 9.729 18.446C9.69337 18.5986 9.62665 18.7423 9.533 18.868C9.44599 18.9801 9.33072 19.0671 9.199 19.12C9.04466 19.1777 8.88075 19.2056 8.716 19.202H8.153V16.495ZM11.896 18.258V19.849H11.106V15.85H13.654V16.503H11.896V17.62H13.502V18.258H11.896Z" fill="black"/>
<path d="M40.1193 9H38.5341C38.4403 8.54403 38.2763 8.14347 38.0419 7.7983C37.8118 7.45312 37.5305 7.16335 37.1982 6.92898C36.87 6.69034 36.5057 6.51136 36.1051 6.39205C35.7045 6.27273 35.2869 6.21307 34.8523 6.21307C34.0597 6.21307 33.3416 6.41335 32.6982 6.81392C32.0589 7.21449 31.5497 7.80469 31.1705 8.58452C30.7955 9.36435 30.608 10.321 30.608 11.4545C30.608 12.5881 30.7955 13.5447 31.1705 14.3246C31.5497 15.1044 32.0589 15.6946 32.6982 16.0952C33.3416 16.4957 34.0597 16.696 34.8523 16.696C35.2869 16.696 35.7045 16.6364 36.1051 16.517C36.5057 16.3977 36.87 16.2209 37.1982 15.9865C37.5305 15.7479 37.8118 15.456 38.0419 15.1108C38.2763 14.7614 38.4403 14.3608 38.5341 13.9091H40.1193C40 14.5781 39.7827 15.1768 39.4673 15.7053C39.152 16.2337 38.7599 16.6832 38.2912 17.054C37.8224 17.4205 37.2962 17.6996 36.7124 17.8913C36.1328 18.0831 35.5128 18.179 34.8523 18.179C33.7358 18.179 32.7429 17.9062 31.8736 17.3608C31.0043 16.8153 30.3203 16.0398 29.8217 15.0341C29.3232 14.0284 29.0739 12.8352 29.0739 11.4545C29.0739 10.0739 29.3232 8.88068 29.8217 7.875C30.3203 6.86932 31.0043 6.09375 31.8736 5.5483C32.7429 5.00284 33.7358 4.73011 34.8523 4.73011C35.5128 4.73011 36.1328 4.82599 36.7124 5.01776C37.2962 5.20952 37.8224 5.49077 38.2912 5.86151C38.7599 6.22798 39.152 6.67543 39.4673 7.20384C39.7827 7.72798 40 8.3267 40.1193 9ZM46.465 18.2045C45.5787 18.2045 44.801 17.9936 44.1319 17.5717C43.4672 17.1499 42.9473 16.5597 42.5723 15.8011C42.2015 15.0426 42.0162 14.1562 42.0162 13.142C42.0162 12.1193 42.2015 11.2266 42.5723 10.4638C42.9473 9.70099 43.4672 9.10866 44.1319 8.68679C44.801 8.26491 45.5787 8.05398 46.465 8.05398C47.3514 8.05398 48.127 8.26491 48.7917 8.68679C49.4608 9.10866 49.9806 9.70099 50.3514 10.4638C50.7264 11.2266 50.9139 12.1193 50.9139 13.142C50.9139 14.1562 50.7264 15.0426 50.3514 15.8011C49.9806 16.5597 49.4608 17.1499 48.7917 17.5717C48.127 17.9936 47.3514 18.2045 46.465 18.2045ZM46.465 16.8494C47.1383 16.8494 47.6923 16.6768 48.127 16.3317C48.5616 15.9865 48.8833 15.5327 49.0922 14.9702C49.301 14.4077 49.4054 13.7983 49.4054 13.142C49.4054 12.4858 49.301 11.8743 49.0922 11.3075C48.8833 10.7408 48.5616 10.2827 48.127 9.93324C47.6923 9.58381 47.1383 9.40909 46.465 9.40909C45.7917 9.40909 45.2377 9.58381 44.8031 9.93324C44.3684 10.2827 44.0467 10.7408 43.8379 11.3075C43.6291 11.8743 43.5247 12.4858 43.5247 13.142C43.5247 13.7983 43.6291 14.4077 43.8379 14.9702C44.0467 15.5327 44.3684 15.9865 44.8031 16.3317C45.2377 16.6768 45.7917 16.8494 46.465 16.8494ZM53.9373 8.18182L56.2896 12.196L58.6419 8.18182H60.3805L57.2101 13.0909L60.3805 18H58.6419L56.2896 14.1903L53.9373 18H52.1987L55.318 13.0909L52.1987 8.18182H53.9373ZM62.533 21.6818V8.18182H63.9904V9.74148H64.1694C64.2802 9.57102 64.4336 9.35369 64.6296 9.08949C64.8299 8.82102 65.1154 8.58239 65.4862 8.37358C65.8612 8.16051 66.3683 8.05398 67.0075 8.05398C67.8342 8.05398 68.5629 8.26065 69.1935 8.67401C69.8242 9.08736 70.3164 9.6733 70.6701 10.4318C71.0238 11.1903 71.2006 12.0852 71.2006 13.1165C71.2006 14.1562 71.0238 15.0575 70.6701 15.8203C70.3164 16.5788 69.8263 17.1669 69.1999 17.5845C68.5735 17.9979 67.8512 18.2045 67.033 18.2045C66.4023 18.2045 65.8974 18.1001 65.5181 17.8913C65.1388 17.6783 64.8469 17.4375 64.6424 17.169C64.4379 16.8963 64.2802 16.6705 64.1694 16.4915H64.0415V21.6818H62.533ZM64.016 13.0909C64.016 13.8324 64.1246 14.4865 64.342 15.0533C64.5593 15.6158 64.8768 16.0568 65.2944 16.3764C65.712 16.6918 66.2234 16.8494 66.8285 16.8494C67.4592 16.8494 67.9854 16.6832 68.4073 16.3509C68.8335 16.0142 69.1531 15.5625 69.3661 14.9957C69.5835 14.4247 69.6921 13.7898 69.6921 13.0909C69.6921 12.4006 69.5856 11.7784 69.3725 11.2244C69.1637 10.6662 68.8462 10.2251 68.4201 9.90128C67.9982 9.57315 67.4677 9.40909 66.8285 9.40909C66.2148 9.40909 65.6992 9.56463 65.2816 9.87571C64.864 10.1825 64.5487 10.6129 64.3356 11.1669C64.1225 11.7166 64.016 12.358 64.016 13.0909ZM76.391 18.2301C75.7688 18.2301 75.2042 18.1129 74.6971 17.8786C74.19 17.6399 73.7873 17.2969 73.489 16.8494C73.1907 16.3977 73.0415 15.8523 73.0415 15.2131C73.0415 14.6506 73.1523 14.1946 73.3739 13.8452C73.5955 13.4915 73.8917 13.2145 74.2624 13.0142C74.6332 12.8139 75.0423 12.6648 75.4897 12.5668C75.9414 12.4645 76.3952 12.3835 76.8512 12.3239C77.4478 12.2472 77.9315 12.1896 78.3022 12.1513C78.6772 12.1087 78.9499 12.0384 79.1204 11.9403C79.2951 11.8423 79.3825 11.6719 79.3825 11.429V11.3778C79.3825 10.7472 79.2099 10.2571 78.8647 9.90767C78.5238 9.55824 78.006 9.38352 77.3114 9.38352C76.5913 9.38352 76.0266 9.54119 75.6175 9.85653C75.2085 10.1719 74.9208 10.5085 74.7546 10.8665L73.3228 10.3551C73.5785 9.75852 73.9194 9.29403 74.3455 8.96165C74.7759 8.625 75.2447 8.39062 75.7518 8.25852C76.2631 8.12216 76.766 8.05398 77.2603 8.05398C77.5756 8.05398 77.9379 8.09233 78.3469 8.16903C78.7603 8.24148 79.1587 8.39276 79.5423 8.62287C79.93 8.85298 80.2518 9.20028 80.5075 9.66477C80.7631 10.1293 80.891 10.7514 80.891 11.5312V18H79.3825V16.6705H79.3058C79.2035 16.8835 79.033 17.1115 78.7944 17.3544C78.5558 17.5973 78.2383 17.804 77.842 17.9744C77.4457 18.1449 76.962 18.2301 76.391 18.2301ZM76.6211 16.875C77.2177 16.875 77.7205 16.7578 78.1296 16.5234C78.543 16.2891 78.854 15.9865 79.0629 15.6158C79.2759 15.245 79.3825 14.8551 79.3825 14.446V13.0653C79.3185 13.142 79.1779 13.2124 78.9606 13.2763C78.7475 13.3359 78.5004 13.3892 78.2191 13.4361C77.9421 13.4787 77.6715 13.517 77.4073 13.5511C77.1474 13.581 76.9364 13.6065 76.7745 13.6278C76.3825 13.679 76.016 13.7621 75.6751 13.8771C75.3384 13.9879 75.0657 14.1562 74.8569 14.3821C74.6523 14.6037 74.5501 14.9062 74.5501 15.2898C74.5501 15.8139 74.744 16.2102 75.1317 16.4787C75.5238 16.7429 76.0202 16.875 76.6211 16.875ZM90.2154 12.4006V13.8068H84.7949V12.4006H90.2154ZM85.1529 8.18182V18H83.6444V8.18182H85.1529ZM91.3659 8.18182V18H89.8574V8.18182H91.3659ZM95.6294 15.7756L100.36 8.18182H102.098V18H100.59V10.4062L95.8851 18H94.1209V8.18182H95.6294V15.7756ZM103.525 9.58807V8.18182H111.502V9.58807H108.281V18H106.772V9.58807H103.525ZM115.007 11.7358H117.819C118.97 11.7358 119.85 12.0277 120.459 12.6115C121.069 13.1953 121.373 13.9347 121.373 14.8295C121.373 15.4176 121.237 15.9524 120.964 16.4339C120.692 16.9112 120.291 17.2926 119.763 17.5781C119.234 17.8594 118.586 18 117.819 18H113.703V8.18182H115.211V16.5938H117.819C118.416 16.5938 118.906 16.4361 119.29 16.1207C119.673 15.8054 119.865 15.4006 119.865 14.9062C119.865 14.3864 119.673 13.9624 119.29 13.6342C118.906 13.3061 118.416 13.142 117.819 13.142H115.007V11.7358ZM128.732 18V8.18182H132.746C133.803 8.18182 134.643 8.42045 135.265 8.89773C135.887 9.375 136.198 10.0057 136.198 10.7898C136.198 11.3864 136.021 11.8487 135.668 12.1768C135.314 12.5007 134.86 12.7202 134.306 12.8352C134.668 12.8864 135.02 13.0142 135.361 13.2188C135.706 13.4233 135.991 13.7045 136.217 14.0625C136.443 14.4162 136.556 14.8509 136.556 15.3665C136.556 15.8693 136.428 16.3189 136.173 16.7152C135.917 17.1115 135.55 17.4247 135.073 17.6548C134.596 17.8849 134.025 18 133.36 18H128.732ZM130.164 16.6193H133.36C133.88 16.6193 134.287 16.4957 134.581 16.2486C134.875 16.0014 135.022 15.6648 135.022 15.2386C135.022 14.7315 134.875 14.3331 134.581 14.0433C134.287 13.7493 133.88 13.6023 133.36 13.6023H130.164V16.6193ZM130.164 12.2983H132.746C133.151 12.2983 133.499 12.2429 133.788 12.1321C134.078 12.017 134.3 11.8551 134.453 11.6463C134.611 11.4332 134.69 11.1818 134.69 10.892C134.69 10.4787 134.517 10.1548 134.172 9.92045C133.827 9.68182 133.352 9.5625 132.746 9.5625H130.164V12.2983ZM144.107 18V4.90909H148.53C149.557 4.90909 150.396 5.09446 151.048 5.4652C151.705 5.83168 152.191 6.32812 152.506 6.95455C152.821 7.58097 152.979 8.27983 152.979 9.05114C152.979 9.82244 152.821 10.5234 152.506 11.1541C152.195 11.7848 151.713 12.2876 151.061 12.6626C150.409 13.0334 149.574 13.2188 148.556 13.2188H145.385V11.8125H148.504C149.208 11.8125 149.772 11.6911 150.198 11.4482C150.624 11.2053 150.933 10.8771 151.125 10.4638C151.321 10.0462 151.419 9.57528 151.419 9.05114C151.419 8.52699 151.321 8.05824 151.125 7.64489C150.933 7.23153 150.622 6.90767 150.192 6.6733C149.762 6.43466 149.191 6.31534 148.479 6.31534H145.692V18H144.107ZM159.572 18H155.532V4.90909H159.751C161.021 4.90909 162.108 5.17116 163.011 5.69531C163.915 6.2152 164.607 6.96307 165.089 7.93892C165.57 8.91051 165.811 10.0739 165.811 11.429C165.811 12.7926 165.568 13.9666 165.082 14.951C164.596 15.9311 163.889 16.6854 162.96 17.2138C162.031 17.7379 160.902 18 159.572 18ZM157.118 16.5938H159.47C160.552 16.5938 161.449 16.3849 162.161 15.9673C162.873 15.5497 163.403 14.9553 163.753 14.1839C164.102 13.4126 164.277 12.4943 164.277 11.429C164.277 10.3722 164.104 9.46236 163.759 8.69957C163.414 7.93253 162.898 7.34446 162.212 6.93537C161.526 6.52202 160.672 6.31534 159.649 6.31534H157.118V16.5938ZM168.47 18V4.90909H176.319V6.31534H170.055V10.7386H175.731V12.1449H170.055V18H168.47Z" fill="black"/>
</svg>
