<svg width="101" height="101" viewBox="0 0 101 101" fill="none" xmlns="http://www.w3.org/2000/svg">
<path d="M94.6509 91.5259C75.9517 91.5052 58.0264 84.0582 44.8173 70.8227C31.6081 57.5872 24.1969 39.647 24.2134 20.9478L9.35406 35.8072C8.75866 36.3448 7.97932 36.6328 7.17741 36.6117C6.37549 36.5905 5.61242 36.2618 5.04619 35.6936C4.47996 35.1253 4.15393 34.3611 4.13562 33.5591C4.11731 32.7571 4.40811 31.9788 4.94781 31.3853L25.1353 11.1978C25.4255 10.9073 25.7702 10.6768 26.1496 10.5195C26.5289 10.3622 26.9356 10.2813 27.3462 10.2813C27.7569 10.2813 28.1636 10.3622 28.5429 10.5195C28.9223 10.6768 29.267 10.9073 29.5572 11.1978L49.7447 31.3853C50.035 31.6757 50.2653 32.0203 50.4225 32.3997C50.5796 32.779 50.6605 33.1856 50.6605 33.5962C50.6605 34.0069 50.5796 34.4134 50.4225 34.7928C50.2653 35.1722 50.035 35.5168 49.7447 35.8072C49.4543 36.0975 49.1096 36.3278 48.7303 36.485C48.3509 36.6421 47.9444 36.723 47.5337 36.723C47.1231 36.723 46.7165 36.6421 46.3372 36.485C45.9578 36.3278 45.6132 36.0975 45.3228 35.8072L30.4634 20.9478C30.4468 37.9894 37.1996 54.3399 49.2367 66.4033C61.2737 78.4667 77.6093 85.2552 94.6509 85.2759C95.4797 85.2759 96.2746 85.6052 96.8606 86.1912C97.4467 86.7773 97.7759 87.5721 97.7759 88.4009C97.7759 89.2297 97.4467 90.0246 96.8606 90.6106C96.2746 91.1967 95.4797 91.5259 94.6509 91.5259Z" fill="#E83D6C"/>
</svg>
