<svg width="30" height="30" viewBox="0 0 30 30" fill="none" xmlns="http://www.w3.org/2000/svg">
<g id="arrow-bar-left">
<path id="Vector" fill-rule="evenodd" clip-rule="evenodd" d="M20.6249 23.75C20.4591 23.75 20.3002 23.6842 20.183 23.5669C20.0657 23.4497 19.9999 23.2908 19.9999 23.125V6.875C19.9999 6.70924 20.0657 6.55027 20.183 6.43306C20.3002 6.31585 20.4591 6.25 20.6249 6.25C20.7907 6.25 20.9496 6.31585 21.0668 6.43306C21.184 6.55027 21.2499 6.70924 21.2499 6.875V23.125C21.2499 23.2908 21.184 23.4497 21.0668 23.5669C20.9496 23.6842 20.7907 23.75 20.6249 23.75ZM17.4999 15C17.4999 15.1658 17.434 15.3247 17.3168 15.4419C17.1996 15.5592 17.0407 15.625 16.8749 15.625H9.63365L12.3174 18.3075C12.3755 18.3656 12.4216 18.4346 12.4531 18.5105C12.4845 18.5864 12.5007 18.6678 12.5007 18.75C12.5007 18.8322 12.4845 18.9136 12.4531 18.9895C12.4216 19.0654 12.3755 19.1344 12.3174 19.1925C12.2593 19.2506 12.1903 19.2967 12.1144 19.3282C12.0385 19.3596 11.9571 19.3758 11.8749 19.3758C11.7927 19.3758 11.7113 19.3596 11.6354 19.3282C11.5595 19.2967 11.4905 19.2506 11.4324 19.1925L7.6824 15.4425C7.62419 15.3844 7.57801 15.3155 7.54651 15.2395C7.515 15.1636 7.49878 15.0822 7.49878 15C7.49878 14.9178 7.515 14.8364 7.54651 14.7605C7.57801 14.6845 7.62419 14.6156 7.6824 14.5575L11.4324 10.8075C11.5498 10.6901 11.7089 10.6242 11.8749 10.6242C12.0409 10.6242 12.2 10.6901 12.3174 10.8075C12.4348 10.9249 12.5007 11.084 12.5007 11.25C12.5007 11.416 12.4348 11.5751 12.3174 11.6925L9.63365 14.375H16.8749C17.0407 14.375 17.1996 14.4408 17.3168 14.5581C17.434 14.6753 17.4999 14.8342 17.4999 15Z" fill="#212529"/>
</g>
</svg>
