<svg width="150" height="150" viewBox="0 0 150 150" fill="none" xmlns="http://www.w3.org/2000/svg">
<g clip-path="url(#clip0_887_699)">
<path fill-rule="evenodd" clip-rule="evenodd" d="M19.7763 2.19727H130.224C132.002 2.19727 133.447 3.64219 133.447 5.41934V144.58C133.447 146.349 132.002 147.802 130.224 147.802H19.7763C17.9982 147.802 16.5527 146.349 16.5527 144.58V5.41934C16.5527 3.64219 17.9982 2.19727 19.7763 2.19727Z" fill="#8DCAFC"/>
<path fill-rule="evenodd" clip-rule="evenodd" d="M122.747 24.9521V144.581C122.747 146.35 121.301 147.803 119.523 147.803H130.224C132.002 147.803 133.447 146.349 133.447 144.581V24.9521H122.747Z" fill="#64B9FC"/>
<path fill-rule="evenodd" clip-rule="evenodd" d="M16.5527 24.9521H122.747H133.447V5.41934C133.447 3.64219 132.002 2.19727 130.224 2.19727H19.7763C17.9982 2.19727 16.5527 3.64219 16.5527 5.41934V24.9521Z" fill="#9C9C9C"/>
<path fill-rule="evenodd" clip-rule="evenodd" d="M122.747 5.41934V24.9521H133.447V5.41934C133.447 3.64219 132.002 2.19727 130.224 2.19727H119.523C121.301 2.19727 122.747 3.64219 122.747 5.41934Z" fill="#838383"/>
<path fill-rule="evenodd" clip-rule="evenodd" d="M32.5541 94.8273V84.8119C32.5541 84.2388 33.0193 83.7654 33.6009 83.7654H115.834C116.408 83.7654 116.881 84.2388 116.881 84.8119V94.8273C116.881 95.4003 116.408 95.8738 115.834 95.8738H33.6009C33.0193 95.8738 32.5541 95.4003 32.5541 94.8273Z" fill="#F8F6F6"/>
<path fill-rule="evenodd" clip-rule="evenodd" d="M106.978 84.8119V94.8273C106.978 95.4003 106.504 95.8738 105.931 95.8738H115.834C116.408 95.8738 116.881 95.4003 116.881 94.8273V84.8119C116.881 84.2388 116.408 83.7654 115.834 83.7654H105.931C106.504 83.7657 106.978 84.2391 106.978 84.8119Z" fill="#E2E2E2"/>
<path d="M111.938 124.434L106.903 115.714L110.933 113.38C111.265 113.181 111.273 112.741 110.875 112.467L95.0642 106.006C94.8398 105.939 94.732 105.906 94.6655 105.939C94.599 105.981 94.5741 106.097 94.5243 106.321L92.223 123.238C92.2561 123.719 92.6467 123.935 92.9874 123.736L97.0169 121.419L102.06 130.139C102.193 130.371 102.442 130.396 102.675 130.263L107.203 127.647L111.739 125.031C111.971 124.89 112.079 124.666 111.938 124.434Z" fill="#FCD79F"/>
<path fill-rule="evenodd" clip-rule="evenodd" d="M100.398 108.746C102.55 113.056 103.846 118.529 103.846 124.5C103.846 126.31 103.721 128.079 103.497 129.781L107.202 127.647L111.739 125.031C111.971 124.89 112.079 124.666 111.938 124.433L106.903 115.713L110.933 113.38C111.265 113.181 111.274 112.74 110.875 112.466L101.761 108.746L100.033 108.04C100.157 108.272 100.281 108.505 100.398 108.746Z" fill="#FAC574"/>
<path fill-rule="evenodd" clip-rule="evenodd" d="M33.7837 107.583H53.5154C54.1884 107.583 54.745 108.14 54.745 108.821V118.454C54.745 119.135 54.1884 119.692 53.5154 119.692H33.7837C33.1107 119.692 32.5541 119.135 32.5541 118.454V108.821C32.5541 108.14 33.1107 107.583 33.7837 107.583Z" fill="#BCEA73"/>
<path fill-rule="evenodd" clip-rule="evenodd" d="M48.2065 108.821V118.454C48.2065 119.135 47.6581 119.692 46.9769 119.692H53.5154C54.1884 119.692 54.745 119.135 54.745 118.454V108.821C54.745 108.14 54.1884 107.583 53.5154 107.583H46.9769C47.6581 107.583 48.2065 108.14 48.2065 108.821Z" fill="#99D53B"/>
<path fill-rule="evenodd" clip-rule="evenodd" d="M32.5541 71.3915V61.3761C32.5541 60.803 33.0193 60.3296 33.6009 60.3296H115.834C116.408 60.3296 116.881 60.803 116.881 61.3761V71.3915C116.881 71.9645 116.408 72.438 115.834 72.438H33.6009C33.0193 72.438 32.5541 71.9645 32.5541 71.3915Z" fill="#F8F6F6"/>
<path fill-rule="evenodd" clip-rule="evenodd" d="M106.978 61.3761V71.3915C106.978 71.9645 106.504 72.438 105.931 72.438H115.834C116.408 72.438 116.881 71.9645 116.881 71.3915V61.3761C116.881 60.803 116.408 60.3296 115.834 60.3296H105.931C106.504 60.3299 106.978 60.8033 106.978 61.3761Z" fill="#E2E2E2"/>
<path d="M108.068 47.4126C109.282 47.4126 110.266 46.4288 110.266 45.2153C110.266 44.0019 109.282 43.0181 108.068 43.0181H42.181C40.9673 43.0181 39.9838 44.0019 39.9838 45.2153C39.9838 46.4288 40.9673 47.4126 42.181 47.4126H108.068Z" fill="black"/>
<path d="M30.3755 94.8272C30.3755 96.6158 31.8307 98.071 33.619 98.071H115.816C117.604 98.071 119.06 96.6158 119.06 94.8272V84.8118C119.06 83.0232 117.604 81.5684 115.816 81.5684H33.619C31.8307 81.5684 30.3755 83.0232 30.3755 84.8118V94.8272ZM34.7701 85.9629H114.665V93.6765H34.7701V85.9629Z" fill="black"/>
<path d="M105.594 11.344C104.38 11.344 103.396 12.3278 103.396 13.5413V13.5747C103.396 14.7881 104.38 15.7719 105.594 15.7719C106.807 15.7719 107.791 14.7881 107.791 13.5747V13.5413C107.791 12.3278 106.807 11.344 105.594 11.344Z" fill="black"/>
<path d="M94.3078 11.3109C93.094 11.3109 92.1105 12.2947 92.1105 13.5082V13.5413C92.1105 14.7548 93.094 15.7385 94.3078 15.7385C95.5216 15.7385 96.5051 14.7548 96.5051 13.5413V13.5082C96.5051 12.2947 95.5216 11.3109 94.3078 11.3109Z" fill="black"/>
<path d="M116.879 11.4023C115.666 11.4023 114.682 12.3861 114.682 13.5996V13.6327C114.682 14.8462 115.666 15.83 116.879 15.83C118.093 15.83 119.077 14.8462 119.077 13.6327V13.5996C119.077 12.3861 118.093 11.4023 116.879 11.4023Z" fill="black"/>
<path d="M80.813 11.3774H32.8054C31.5917 11.3774 30.6082 12.3612 30.6082 13.5747C30.6082 14.7882 31.5917 15.772 32.8054 15.772H80.813C82.0268 15.772 83.0103 14.7882 83.0103 13.5747C83.0103 12.3612 82.0265 11.3774 80.813 11.3774Z" fill="black"/>
<path d="M130.199 0H19.8006C16.8123 0 14.3812 2.43105 14.3812 5.41963V71.7571C14.3812 72.9706 15.3647 73.9544 16.5785 73.9544C17.7923 73.9544 18.7758 72.9706 18.7758 71.7571V27.1491H131.224V144.58C131.224 145.136 130.755 145.605 130.199 145.605H19.8006C19.2451 145.605 18.7758 145.136 18.7758 144.58V81.9053C18.7758 80.6918 17.7923 79.708 16.5785 79.708C15.3647 79.708 14.3812 80.6918 14.3812 81.9053V144.58C14.3812 147.569 16.8123 150 19.8006 150H130.199C133.188 150 135.619 147.569 135.619 144.58V5.41963C135.619 2.43105 133.188 0 130.199 0ZM18.7758 22.7546V5.41963C18.7758 4.85449 19.2354 4.39453 19.8006 4.39453H130.199C130.765 4.39453 131.224 4.8542 131.224 5.41963V22.7549L18.7758 22.7546Z" fill="black"/>
<path d="M112.047 115.264C112.84 114.789 113.33 113.961 113.358 113.051C113.387 112.111 112.918 111.216 112.104 110.656C111.974 110.567 111.836 110.492 111.69 110.432L95.8869 103.971C95.8195 103.944 95.7357 103.915 95.6657 103.894C95.2637 103.775 94.5149 103.553 93.6741 103.973C93.612 104.005 93.5513 104.038 93.4925 104.075C92.6455 104.605 92.4609 105.437 92.3704 105.845C92.3572 105.904 92.3467 105.964 92.3385 106.025L90.0381 122.941C90.0181 123.089 90.0129 123.239 90.0231 123.388C90.092 124.389 90.6378 125.254 91.4827 125.7C92.3018 126.133 93.2765 126.108 94.0749 125.64L96.2021 124.416L100.14 131.228C100.621 132.071 101.481 132.537 102.388 132.537C102.848 132.537 103.321 132.417 103.762 132.165L112.82 126.934C112.834 126.926 112.848 126.918 112.862 126.909C114.136 126.136 114.551 124.566 113.818 123.322L109.889 116.515L112.019 115.281C112.028 115.276 112.037 115.27 112.047 115.264ZM103.058 127.496L98.9089 120.319C98.5016 119.615 97.7636 119.221 97.0046 119.221C96.6328 119.221 96.256 119.316 95.9109 119.514L94.8562 120.121L96.3791 108.921L106.845 113.199L105.787 113.812C104.739 114.42 104.38 115.762 104.986 116.812L109.129 123.991L103.058 127.496Z" fill="black"/>
<path d="M30.3755 118.454C30.3755 120.348 31.9125 121.889 33.8018 121.889H53.5248C55.4138 121.889 56.9507 120.348 56.9507 118.454V108.821C56.9507 106.927 55.4138 105.386 53.5248 105.386H33.8018C31.9125 105.386 30.3755 106.927 30.3755 108.821V118.454ZM34.7701 109.781H52.5565V117.494H34.7701V109.781Z" fill="black"/>
<path d="M30.3755 61.3763V71.3918C30.3755 73.1803 31.8307 74.6352 33.619 74.6352H69.1371C70.3508 74.6352 71.3343 73.6514 71.3343 72.4379C71.3343 71.2245 70.3508 70.2407 69.1371 70.2407H34.7701V62.5271H114.665V70.2407H79.2767C78.0629 70.2407 77.0795 71.2245 77.0795 72.4379C77.0795 73.6514 78.0629 74.6352 79.2767 74.6352H115.816C117.605 74.6352 119.06 73.1803 119.06 71.3918V61.3763C119.06 59.5877 117.605 58.1326 115.816 58.1326H33.619C31.8304 58.1326 30.3755 59.5877 30.3755 61.3763Z" fill="black"/>
</g>
<defs>
<clipPath id="clip0_887_699">
<rect width="150" height="150" fill="white"/>
</clipPath>
</defs>
</svg>
