<svg width="150" height="150" viewBox="0 0 150 150" fill="none" xmlns="http://www.w3.org/2000/svg">
<path d="M113.161 147.803H36.8391C35.221 147.803 33.9094 146.491 33.9094 144.873V136.441H116.091V144.873C116.091 146.491 114.779 147.803 113.161 147.803Z" fill="#ABDAFF"/>
<path d="M120.968 139.412H29.0323C27.0908 139.412 25.5021 137.824 25.5021 135.882V16.9052C25.5021 14.9636 27.0905 13.3749 29.0323 13.3749H120.967C122.909 13.3749 124.498 14.9634 124.498 16.9052V135.882C124.498 137.824 122.909 139.412 120.968 139.412Z" fill="#54B1FF"/>
<path d="M120.968 13.3751H109.249C111.19 13.3751 112.779 14.9636 112.779 16.9054V135.882C112.779 137.824 111.191 139.413 109.249 139.413H120.968C122.909 139.413 124.498 137.824 124.498 135.882V16.9051C124.498 14.9636 122.909 13.3751 120.968 13.3751Z" fill="#3DA7FF"/>
<path d="M112.26 71.7384H37.7397C36.1216 71.7384 34.81 70.4268 34.81 68.8087V25.5439C34.81 23.9259 36.1216 22.6143 37.7397 22.6143H112.261C113.879 22.6143 115.19 23.9259 115.19 25.5439V68.8087C115.19 70.4268 113.878 71.7384 112.26 71.7384Z" fill="#ABDAFF"/>
<path d="M112.26 129.836H37.7397C36.1216 129.836 34.81 128.524 34.81 126.906V83.6411C34.81 82.023 36.1216 80.7114 37.7397 80.7114H112.261C113.879 80.7114 115.19 82.023 115.19 83.6411V126.906C115.19 128.524 113.878 129.836 112.26 129.836Z" fill="#ABDAFF"/>
<path d="M86.4759 107.699H63.5238C57.3504 107.699 52.3459 102.695 52.3459 96.5212H97.6535C97.6538 102.695 92.6493 107.699 86.4759 107.699Z" fill="#54B1FF"/>
<path d="M86.4759 50.0452H63.5238C57.3504 50.0452 52.3459 45.0407 52.3459 38.8673H97.6535C97.6538 45.0407 92.6493 50.0452 86.4759 50.0452Z" fill="#54B1FF"/>
<path d="M106.496 22.6143H44.8327V5.12695C44.8327 3.50889 46.1444 2.19727 47.7624 2.19727H103.567C105.185 2.19727 106.496 3.50889 106.496 5.12695V22.6143Z" fill="#FED23A"/>
<path d="M103.567 2.19727H91.8478C93.4658 2.19727 94.7775 3.50889 94.7775 5.12695V22.6143H106.496V5.12695C106.496 3.50889 105.185 2.19727 103.567 2.19727Z" fill="#FFC600"/>
<path d="M106.496 11.4621H67.6972C66.7327 11.4621 65.8301 10.9875 65.2834 10.193L59.7832 2.19727H103.567C105.185 2.19727 106.496 3.50889 106.496 5.12695V11.4621Z" fill="#FFF9E9"/>
<path d="M103.567 2.19727H91.8478C93.4658 2.19727 94.7775 3.50889 94.7775 5.12695V11.4621H106.496V5.12695C106.496 3.50889 105.185 2.19727 103.567 2.19727Z" fill="#FFF4D6"/>
<path d="M120.967 11.1776H108.693V5.12695C108.693 2.3001 106.393 0 103.566 0H59.7835H47.7627C44.9358 0 42.6357 2.3001 42.6357 5.12695V11.1776H29.0326C25.8744 11.1776 23.3051 13.747 23.3051 16.9052V38.9648C23.3051 41.8058 27.6996 41.8058 27.6996 38.9648V16.9052C27.6996 16.1827 28.3102 15.5722 29.0326 15.5722H42.6357V20.417H34.81C33.5962 20.417 32.6127 21.4008 32.6127 22.6143V71.7384C32.6127 72.9519 33.5962 73.9356 34.81 73.9356H115.19C116.404 73.9356 117.388 72.9519 117.388 71.7384V22.6143C117.388 21.4008 116.404 20.417 115.19 20.417H108.693V15.5722H120.968C121.69 15.5722 122.301 16.1824 122.301 16.9052V135.882C122.301 136.605 121.69 137.215 120.968 137.215H29.0326C28.3102 137.215 27.6996 136.605 27.6996 135.882V49.8047C27.6996 46.9638 23.3051 46.9638 23.3051 49.8047V135.882C23.3051 139.04 25.8744 141.61 29.0326 141.61H31.7121V147.803C31.7121 149.016 32.6956 150 33.9094 150H116.091C117.304 150 118.288 149.016 118.288 147.803V141.61H120.967C124.126 141.61 126.695 139.04 126.695 135.882V16.9052C126.695 13.747 124.126 11.1776 120.967 11.1776ZM103.567 4.39453C103.971 4.39453 104.299 4.72324 104.299 5.12695V9.26484H67.6969C67.4558 9.26484 67.2302 9.14619 67.0934 8.94756L63.9618 4.39453H103.567ZM112.993 69.5411H37.0069V24.8115H44.8327H106.496H112.993V69.5411ZM47.03 20.417V5.12695C47.03 4.72324 47.3584 4.39453 47.7624 4.39453H58.628L63.4729 11.4378C64.4294 12.8291 66.0085 13.6594 67.6969 13.6594H104.299V20.417H47.03ZM113.893 145.605H36.1066V141.61H113.893V145.605Z" fill="#060606"/>
<path d="M112.939 94.3359C112.939 95.5192 113.875 96.4839 115.046 96.5314C115.096 96.534 115.151 96.5358 115.19 96.5361C115.77 96.5361 116.326 96.307 116.738 95.8986C117.153 95.4861 117.387 94.9245 117.387 94.3388V80.7117C117.387 79.4982 116.404 78.5144 115.19 78.5144H34.8097C33.5959 78.5144 32.6124 79.4982 32.6124 80.7117V129.836C32.6124 131.049 33.5959 132.033 34.8097 132.033H115.19C116.404 132.033 117.387 131.049 117.387 129.836V106.053C117.387 105.468 117.153 104.906 116.738 104.494C116.322 104.081 115.763 103.861 115.172 103.856L115.112 103.858C113.909 103.871 112.939 104.849 112.939 106.055C112.939 106.221 112.958 106.383 112.993 106.539V127.639H37.0069V82.9086H112.993V93.8519C112.958 94.0075 112.939 94.1695 112.939 94.3359Z" fill="#060606"/>
<path d="M52.3462 94.3243C51.1324 94.3243 50.1489 95.308 50.1489 96.5215C50.1489 103.896 56.1489 109.896 63.5238 109.896H86.4762C93.8511 109.896 99.8511 103.896 99.8511 96.5212C99.7254 95.1821 98.993 94.4497 97.6538 94.324L52.3462 94.3243ZM86.4762 105.502H63.5238C59.3297 105.502 55.7979 102.612 54.815 98.7185H95.1847C94.202 102.612 90.6703 105.502 86.4762 105.502Z" fill="#060606"/>
<path d="M97.6538 36.6703H52.3462C51.1324 36.6703 50.1489 37.6541 50.1489 38.8676C50.1489 46.2425 56.1489 52.2425 63.5238 52.2425H86.4762C93.8511 52.2425 99.8511 46.2425 99.8511 38.8676C99.8511 37.6541 98.8676 36.6703 97.6538 36.6703ZM86.4762 47.8479H63.5238C59.3297 47.8479 55.7979 44.9581 54.815 41.0648H95.1847C94.202 44.9581 90.6703 47.8479 86.4762 47.8479Z" fill="#060606"/>
</svg>
