<svg width="172" height="150" viewBox="0 0 172 150" fill="none" xmlns="http://www.w3.org/2000/svg">
<g clip-path="url(#clip0_838_5065)">
<path d="M161.627 147.036H10.3729C6.45277 147.036 3.27451 143.858 3.27451 139.937V10.0621C3.27451 6.14201 6.45243 2.96375 10.3729 2.96375H161.627C165.547 2.96375 168.725 6.14167 168.725 10.0621V139.937C168.725 143.858 165.548 147.036 161.627 147.036Z" fill="#86DCFF"/>
<path d="M161.627 141.032H10.3729C6.45277 141.032 3.27451 137.854 3.27451 133.933V139.937C3.27451 143.858 6.45243 147.036 10.3729 147.036H161.627C165.547 147.036 168.725 143.858 168.725 139.937V133.933C168.725 137.854 165.548 141.032 161.627 141.032Z" fill="#03CDFE"/>
<path d="M51.0451 20.1874H120.955V32.2013H51.0451V20.1874Z" fill="#FE5284"/>
<path d="M51.0451 26.1969H120.955V32.2012H51.0451V26.1969Z" fill="#E6266B"/>
<path d="M17.0376 48.4501H54.8092V84.7435H17.0376V48.4501Z" fill="#F2FDFF"/>
<path d="M17.0376 96.5389H54.8092V132.832H17.0376V96.5389Z" fill="#F2FDFF"/>
<path d="M67.1142 48.4501H104.886V84.7435H67.1142V48.4501Z" fill="#F2FDFF"/>
<path d="M67.1142 96.5389H104.886V132.832H67.1142V96.5389Z" fill="#F2FDFF"/>
<path d="M117.191 48.4501H154.962V84.7435H117.191V48.4501Z" fill="#F2FDFF"/>
<path d="M117.191 96.5389H154.962V132.832H117.191V96.5389Z" fill="#F2FDFF"/>
<path d="M17.0376 78.7393H54.8092V84.7435H17.0376V78.7393Z" fill="#D3ECF5"/>
<path d="M17.0376 126.828H54.8092V132.833H17.0376V126.828Z" fill="#D3ECF5"/>
<path d="M67.1142 78.7393H104.886V84.7435H67.1142V78.7393Z" fill="#D3ECF5"/>
<path d="M67.1142 126.828H104.886V132.833H67.1142V126.828Z" fill="#D3ECF5"/>
<path d="M117.191 78.7393H154.962V84.7435H117.191V78.7393Z" fill="#D3ECF5"/>
<path d="M117.191 126.828H154.962V132.833H117.191V126.828Z" fill="#D3ECF5"/>
<path d="M161.627 0.46228H10.3729C5.07946 0.46228 0.772736 4.76868 0.772736 10.0621V139.938C0.772736 145.231 5.07946 149.538 10.3729 149.538H126.188C127.57 149.538 128.69 148.418 128.69 147.036C128.69 145.654 127.57 144.534 126.188 144.534H10.3729C7.83843 144.534 5.77629 142.472 5.77629 139.938V10.0621C5.77629 7.52764 7.83843 5.46584 10.3729 5.46584H161.627C164.162 5.46584 166.224 7.52797 166.224 10.0621V139.938C166.224 142.472 164.162 144.534 161.627 144.534H136.195C134.813 144.534 133.693 145.654 133.693 147.036C133.693 148.418 134.813 149.538 136.195 149.538H161.627C166.921 149.538 171.227 145.231 171.227 139.938V10.0621C171.227 4.76868 166.921 0.46228 161.627 0.46228Z" fill="#050525"/>
<path d="M109.889 29.6991C108.507 29.6991 107.388 30.8192 107.388 32.2009C107.388 33.5829 108.507 34.7026 109.889 34.7026H120.955C122.337 34.7026 123.457 33.5829 123.457 32.2009V20.1873C123.457 18.8053 122.337 17.6855 120.955 17.6855H51.0448C49.6632 17.6855 48.543 18.8053 48.543 20.1873V32.2012C48.543 33.5832 49.6632 34.703 51.0448 34.703H99.8822C101.264 34.703 102.384 33.5832 102.384 32.2012C102.384 30.8196 101.264 29.6994 99.8822 29.6994H53.5466V22.6891H118.453V29.6994L109.889 29.6991Z" fill="#050525"/>
<path d="M57.3109 48.45C57.3109 47.068 56.1908 45.9482 54.8092 45.9482H17.0376C15.656 45.9482 14.5359 47.068 14.5359 48.45V84.7438C14.5359 86.1258 15.656 87.2456 17.0376 87.2456H28.2686C29.6503 87.2456 30.7704 86.1258 30.7704 84.7438C30.7704 83.3618 29.6503 82.2421 28.2686 82.2421H19.5394V50.9518H52.3074V82.2421H38.2757C36.8941 82.2421 35.774 83.3618 35.774 84.7438C35.774 86.1258 36.8941 87.2456 38.2757 87.2456H54.8092C56.1908 87.2456 57.3109 86.1258 57.3109 84.7438V48.45Z" fill="#050525"/>
<path d="M26.0344 63.4278H45.8124C47.1941 63.4278 48.3142 62.308 48.3142 60.926C48.3142 59.544 47.1941 58.4242 45.8124 58.4242H26.0344C24.6527 58.4242 23.5326 59.544 23.5326 60.926C23.5326 62.3076 24.6527 63.4278 26.0344 63.4278Z" fill="#050525"/>
<path d="M26.0344 74.7698H45.8124C47.1941 74.7698 48.3142 73.65 48.3142 72.268C48.3142 70.886 47.1941 69.7662 45.8124 69.7662H26.0344C24.6527 69.7662 23.5326 70.886 23.5326 72.268C23.5326 73.6497 24.6527 74.7698 26.0344 74.7698Z" fill="#050525"/>
<path d="M54.8092 94.0371H17.0376C15.656 94.0371 14.5359 95.1569 14.5359 96.5389V132.832C14.5359 134.214 15.656 135.334 17.0376 135.334H54.8092C56.1908 135.334 57.3109 134.214 57.3109 132.832V96.5389C57.3109 95.1572 56.1908 94.0371 54.8092 94.0371ZM52.3074 130.331H19.5394V99.0407H52.3074V130.331Z" fill="#050525"/>
<path d="M26.0344 111.517H45.8124C47.1941 111.517 48.3142 110.397 48.3142 109.015C48.3142 107.633 47.1941 106.513 45.8124 106.513H26.0344C24.6527 106.513 23.5326 107.633 23.5326 109.015C23.5326 110.396 24.6527 111.517 26.0344 111.517Z" fill="#050525"/>
<path d="M26.0344 122.859H45.8124C47.1941 122.859 48.3142 121.739 48.3142 120.357C48.3142 118.975 47.1941 117.855 45.8124 117.855H26.0344C24.6527 117.855 23.5326 118.975 23.5326 120.357C23.5326 121.739 24.6527 122.859 26.0344 122.859Z" fill="#050525"/>
<path d="M107.388 48.45C107.388 47.068 106.268 45.9482 104.886 45.9482H67.1142C65.7326 45.9482 64.6125 47.068 64.6125 48.45V84.7438C64.6125 86.1258 65.7326 87.2456 67.1142 87.2456H104.886C106.268 87.2456 107.388 86.1258 107.388 84.7438V48.45ZM102.384 82.2421H69.616V50.9518H102.384V82.2421Z" fill="#050525"/>
<path d="M76.111 63.4278H95.889C97.271 63.4278 98.3908 62.308 98.3908 60.926C98.3908 59.544 97.271 58.4242 95.889 58.4242H76.111C74.7293 58.4242 73.6092 59.544 73.6092 60.926C73.6092 62.3076 74.7293 63.4278 76.111 63.4278Z" fill="#050525"/>
<path d="M76.111 74.7698H95.889C97.271 74.7698 98.3908 73.65 98.3908 72.268C98.3908 70.886 97.271 69.7662 95.889 69.7662H76.111C74.7293 69.7662 73.6092 70.886 73.6092 72.268C73.6092 73.6497 74.7293 74.7698 76.111 74.7698Z" fill="#050525"/>
<path d="M104.886 94.0371H67.1142C65.7326 94.0371 64.6125 95.1569 64.6125 96.5389V132.832C64.6125 134.214 65.7326 135.334 67.1142 135.334H104.886C106.268 135.334 107.388 134.214 107.388 132.832V96.5389C107.388 95.1572 106.268 94.0371 104.886 94.0371ZM102.384 130.331H69.616V99.0407H102.384V130.331Z" fill="#050525"/>
<path d="M76.111 111.517H95.889C97.271 111.517 98.3908 110.397 98.3908 109.015C98.3908 107.633 97.271 106.513 95.889 106.513H76.111C74.7293 106.513 73.6092 107.633 73.6092 109.015C73.6092 110.396 74.7293 111.517 76.111 111.517Z" fill="#050525"/>
<path d="M76.111 122.859H95.889C97.271 122.859 98.3908 121.739 98.3908 120.357C98.3908 118.975 97.271 117.855 95.889 117.855H76.111C74.7293 117.855 73.6092 118.975 73.6092 120.357C73.6092 121.739 74.7293 122.859 76.111 122.859Z" fill="#050525"/>
<path d="M114.689 48.45V84.7438C114.689 86.1258 115.809 87.2456 117.191 87.2456H154.962C156.344 87.2456 157.464 86.1258 157.464 84.7438V48.45C157.464 47.068 156.344 45.9482 154.962 45.9482H117.191C115.809 45.9482 114.689 47.0684 114.689 48.45ZM119.693 50.9518H152.461V82.2421H119.693V50.9518Z" fill="#050525"/>
<path d="M145.966 58.4242H126.188C124.806 58.4242 123.686 59.544 123.686 60.926C123.686 62.308 124.806 63.4278 126.188 63.4278H145.966C147.348 63.4278 148.467 62.308 148.467 60.926C148.467 59.544 147.347 58.4242 145.966 58.4242Z" fill="#050525"/>
<path d="M145.966 69.7662H126.188C124.806 69.7662 123.686 70.886 123.686 72.268C123.686 73.65 124.806 74.7698 126.188 74.7698H145.966C147.348 74.7698 148.467 73.65 148.467 72.268C148.467 70.886 147.347 69.7662 145.966 69.7662Z" fill="#050525"/>
<path d="M117.191 135.334H154.962C156.344 135.334 157.464 134.214 157.464 132.832V96.5389C157.464 95.1569 156.344 94.0371 154.962 94.0371H117.191C115.809 94.0371 114.689 95.1569 114.689 96.5389V132.832C114.689 134.214 115.809 135.334 117.191 135.334ZM119.693 99.0407H152.461V130.331H119.693V99.0407Z" fill="#050525"/>
<path d="M145.966 106.513H126.188C124.806 106.513 123.686 107.633 123.686 109.015C123.686 110.397 124.806 111.517 126.188 111.517H145.966C147.348 111.517 148.467 110.397 148.467 109.015C148.467 107.633 147.347 106.513 145.966 106.513Z" fill="#050525"/>
<path d="M145.966 117.855H126.188C124.806 117.855 123.686 118.975 123.686 120.357C123.686 121.739 124.806 122.859 126.188 122.859H145.966C147.348 122.859 148.467 121.739 148.467 120.357C148.467 118.975 147.347 117.855 145.966 117.855Z" fill="#050525"/>
</g>
<defs>
<clipPath id="clip0_838_5065">
<rect width="170.455" height="150" fill="white" transform="translate(0.772736)"/>
</clipPath>
</defs>
</svg>
