<svg width="112" height="45" viewBox="0 0 112 45" fill="none" xmlns="http://www.w3.org/2000/svg">
<path fill-rule="evenodd" clip-rule="evenodd" d="M7.54445 3.31282C7.38649 3.41481 7.26841 3.57413 7.21327 3.75975L7.1275 4.04828L6.56912 4.12726C5.17842 4.32404 4.01144 5.3413 3.65387 6.6685C3.58205 6.93524 3.56461 10.5934 3.57636 22.9516C3.5913 38.6888 3.59343 38.8966 3.74381 39.3504C4.0618 40.3101 4.66546 40.9773 5.69024 41.5018L6.2688 41.7979L10.8775 41.8193C15.9947 41.843 15.8057 41.8606 16.0512 41.3389C16.21 41.0016 16.1566 40.6987 15.8945 40.4505L15.7028 40.2688L11.2534 40.2306L6.80406 40.1924L6.3184 39.927C5.77821 39.6319 5.471 39.2686 5.33358 38.7626C5.26609 38.5143 5.24955 34.5942 5.26578 22.7233L5.28732 7.01253L5.47691 6.6753C5.75448 6.18166 6.12168 5.91774 6.69523 5.79978L7.18324 5.6994L7.22116 14.3069C7.25756 22.5706 7.26492 22.9282 7.40438 23.2584C7.79153 24.1752 8.08616 24.4387 10.6338 26.1461C11.8643 26.9708 14.6627 28.8477 16.8524 30.317C19.0422 31.7863 21.0542 33.0936 21.3234 33.222C21.7638 33.4321 21.8855 33.4553 22.5368 33.4542C23.6809 33.4521 22.8417 33.9466 31.4865 28.1794C35.983 25.1796 36.3644 24.9116 36.9131 24.367C37.3851 23.8983 37.6471 23.4432 37.7805 22.8602C37.8276 22.6546 37.8562 19.383 37.8574 14.0936L37.8593 5.65506L38.1772 5.70636C38.6068 5.77562 39.2008 6.11254 39.4319 6.41789C39.8467 6.96612 39.8241 6.02791 39.8277 22.8431C39.8314 40.2701 39.8727 38.9653 39.2991 39.5436C39.1364 39.7077 38.8567 39.9208 38.6776 40.0172L38.3522 40.1924L33.8658 40.2149L29.3795 40.2373L29.1847 40.4337C28.9275 40.693 28.8622 41.0614 29.0191 41.3674C29.2845 41.8848 29.046 41.862 34.0058 41.8427C38.1578 41.8266 38.5185 41.8148 38.9493 41.6805C40.0951 41.3236 40.9925 40.4269 41.3951 39.2368C41.5324 38.8308 41.5373 38.2677 41.5361 22.9526C41.5349 8.41113 41.5242 7.05182 41.409 6.64334C41.0268 5.28939 39.8104 4.24683 38.5149 4.16303L37.9616 4.12718L37.8749 3.80004C37.8112 3.56014 37.7194 3.4301 37.5304 3.31236C37.0796 3.03148 36.828 3.09073 35.9261 3.68995L35.116 4.22825L30.0013 4.22366C26.323 4.22037 24.8394 4.24346 24.7183 4.30592C24.1267 4.61119 24.1521 5.41729 24.7644 5.77065C24.8871 5.8416 25.9035 5.87547 28.7588 5.90398L32.5886 5.94221L31.1477 6.93386C28.0128 9.09124 27.2755 9.57525 27.1663 9.5475C27.0644 9.52166 24.7554 7.90793 21.7072 5.73235C20.28 4.71371 20.0204 4.55806 19.4419 4.3748C18.983 4.22939 18.7467 4.22206 14.5053 4.22206H10.0506L9.57158 3.90991C8.33672 3.10533 8.01335 3.01007 7.54445 3.31282ZM11.9079 7.54692C12.7296 8.09309 15.2703 9.78702 17.5539 11.3112L21.706 14.0824V22.8033C21.706 27.5998 21.6805 31.5081 21.6491 31.4884C21.6178 31.4688 20.5514 30.7556 19.2792 29.9035C16.2172 27.8526 12.1821 25.1619 10.6557 24.153C9.73394 23.5437 9.37326 23.2597 9.21476 23.0183L9.00333 22.6963L8.96541 15.8865C8.94456 12.1411 8.93667 8.295 8.94789 7.33966L8.96822 5.60261L9.69109 6.07822C10.0886 6.33976 11.0862 7.00068 11.9079 7.54692ZM36.0768 22.5445C36.0137 22.7634 35.8694 23.0535 35.7562 23.1892C35.6429 23.3248 34.8498 23.9001 33.9936 24.4674C33.1374 25.0349 30.4649 26.8198 28.0546 28.4341C25.6444 30.0484 23.6223 31.3885 23.5613 31.4121C23.4642 31.4496 23.4503 30.3654 23.4503 22.7814V14.1077L25.6259 12.6626C26.8225 11.8677 29.6806 9.95659 31.9772 8.41564L36.1529 5.61393L36.1722 13.8803C36.189 21.0732 36.1767 22.1983 36.0768 22.5445ZM19.1655 6.089C19.374 6.18999 19.9788 6.57668 20.5094 6.94838C22.7833 8.54117 25.0284 10.1027 25.3296 10.3009C25.5082 10.4184 25.6447 10.5425 25.633 10.5766C25.6062 10.6544 22.6979 12.6317 22.6104 12.6317C22.5531 12.6317 19.8372 10.8332 14.4825 7.24922C13.492 6.58616 12.6814 6.01224 12.6814 5.97386C12.6814 5.93281 13.9413 5.90429 15.7339 5.90475L18.7863 5.90551L19.1655 6.089ZM7.89391 25.2221C7.38778 25.5387 7.10316 26.4489 7.28995 27.1531C7.53346 28.071 7.80314 28.3525 9.57226 29.5358C10.3021 30.0241 13.1516 31.9318 15.9045 33.7754C18.6574 35.6189 21.0974 37.2054 21.3268 37.301C21.67 37.444 21.8851 37.4748 22.5402 37.4748C23.7919 37.4748 22.9971 37.9386 31.5861 32.1948C34.1396 30.4872 36.4386 28.9331 36.6952 28.7411C37.5601 28.0941 37.9524 27.2158 37.7906 26.2887C37.6998 25.7689 37.5521 25.5223 37.1775 25.2653C36.8718 25.0556 36.5696 25.0454 36.3349 25.2371C36.1756 25.3671 36.1546 25.4614 36.1159 26.2215C36.0899 26.734 36.0352 27.1084 35.9758 27.1805C35.9222 27.2457 35.104 27.8072 34.1576 28.4284C33.2112 29.0496 30.4746 30.8811 28.0763 32.4983C25.678 34.1157 23.5724 35.5029 23.3972 35.5813C23.0382 35.7419 22.1747 35.7815 21.8419 35.6528C21.6076 35.5621 21.7499 35.6563 15.9803 31.774C13.6028 30.1741 11.1072 28.4981 10.4345 28.0495C9.76177 27.6009 9.16456 27.177 9.10738 27.1077C9.04064 27.0269 8.98915 26.6949 8.96389 26.1823C8.92825 25.4618 8.90686 25.3687 8.74692 25.2381C8.53033 25.0614 8.16192 25.0544 7.89391 25.2221ZM7.82285 29.5052C7.47203 29.8027 7.30049 30.2359 7.29943 30.8271C7.29776 31.7276 7.83969 32.5374 8.92158 33.2511C9.21681 33.4459 11.9921 35.3042 15.0889 37.3805C18.1857 39.4569 20.95 41.2658 21.2317 41.4004C21.712 41.6298 21.7959 41.6449 22.5781 41.6439C23.3335 41.643 23.4589 41.622 23.9053 41.4211C24.1764 41.2992 25.1319 40.7039 26.0287 40.0982C26.9255 39.4926 29.6385 37.6662 32.0577 36.0397C36.8583 32.8122 37.4078 32.3799 37.6572 31.6354C37.838 31.0955 37.8219 30.3728 37.6193 29.9384C37.3473 29.3549 36.7313 29.1182 36.3324 29.4439C36.173 29.574 36.1489 29.6724 36.1085 30.3611C36.0729 30.9672 36.0321 31.1677 35.9184 31.2971C35.8389 31.3877 35.2277 31.8295 34.5604 32.279C33.893 32.7285 31.6406 34.249 29.5551 35.6578C27.4696 37.0667 25.2514 38.5644 24.6257 38.9862C23.3796 39.8263 23.1646 39.9248 22.5764 39.9248C21.9821 39.9248 21.6741 39.7809 20.403 38.9096C19.7641 38.4717 17.006 36.6095 14.274 34.7714C11.542 32.9333 9.22993 31.3436 9.13604 31.2386C8.98634 31.0713 8.96541 30.9654 8.96541 30.3744C8.96541 29.8089 8.94023 29.6687 8.8082 29.4995C8.58858 29.218 8.1585 29.2205 7.82285 29.5052Z" fill="#385661"/>
<path fill-rule="evenodd" clip-rule="evenodd" d="M71.1864 15.3696C70.2212 15.5615 68.7671 16.3629 67.9832 17.1351C65.2081 19.8687 65.1401 24.2204 67.8303 26.9207C69.1935 28.2891 70.8144 28.9999 72.5581 28.9945C76.4887 28.982 79.4621 26.0921 79.4621 22.2842C79.4621 20.1523 78.855 18.5916 77.4886 17.2109C75.9043 15.6101 73.5043 14.9088 71.1864 15.3696ZM85.1391 15.4259C84.187 15.8438 84.1923 15.8098 84.1317 21.8112C84.0948 25.464 84.1272 27.4089 84.2316 27.7988C84.461 28.6553 84.9682 29.0712 85.7619 29.0537C86.3161 29.0415 86.4744 28.9662 86.8768 28.5232C87.3429 28.01 87.3459 27.9978 87.3459 26.588V25.1692L88.1828 24.2778L89.0198 23.3862L89.2486 23.7085C89.3743 23.8857 89.9035 24.5569 90.4244 25.1999C90.9453 25.843 91.7645 26.8863 92.2448 27.5182C93.191 28.7631 93.5323 28.9969 94.4025 28.9969C94.8418 28.9969 95.0626 28.9033 95.3813 28.5817C95.7703 28.1893 95.8656 27.8758 95.7944 27.2226C95.754 26.8516 95.4884 26.4762 93.5487 24.047C92.6537 22.9259 91.8056 21.8558 91.6641 21.6689L91.4067 21.3288L93.3839 19.3746C94.7177 18.0564 95.3927 17.2844 95.4582 17.0027C95.6019 16.3841 95.153 15.6347 94.4859 15.38C93.5293 15.0145 93.1862 15.2371 90.2387 18.1351C88.7712 19.5778 87.5199 20.7584 87.4582 20.7584C87.3964 20.7584 87.3459 19.8295 87.3459 18.6942C87.3459 16.2925 87.2161 15.8172 86.462 15.4561C85.87 15.1728 85.7236 15.1695 85.1391 15.4259ZM101.327 15.3787C100.774 15.5358 100.298 16.1208 100.298 16.6423C100.298 16.8726 100.544 17.3878 100.896 17.8949C101.225 18.3689 102.128 19.6665 102.902 20.7787C103.677 21.8907 104.374 22.9005 104.451 23.0224C104.528 23.1444 104.623 24.3103 104.662 25.6134C104.725 27.7296 104.764 28.0256 105.027 28.3833C105.674 29.2651 106.722 29.311 107.486 28.4911C107.817 28.1361 107.832 28.0307 107.9 25.6123L107.97 23.1021L109.977 20.1493C112.233 16.8287 112.335 16.5469 111.571 15.7759C111.226 15.4277 111.046 15.3607 110.456 15.3607C109.489 15.3607 109.177 15.6608 107.682 18.0224C107.001 19.0974 106.403 20.0261 106.353 20.0861C106.303 20.146 105.581 19.2027 104.749 17.9898C103.857 16.6902 103.081 15.7057 102.858 15.5925C102.287 15.3023 101.824 15.2377 101.327 15.3787ZM50.6014 15.7652L50.1793 16.1911L50.1637 21.7772C50.1551 24.8496 50.1599 27.5232 50.1744 27.7185C50.1887 27.9138 50.387 28.2654 50.6146 28.4998L51.0287 28.9259L53.1028 28.9709C56.5159 29.0449 58.0824 28.5519 59.7429 26.881C61.2392 25.3754 61.823 23.8146 61.6857 21.6873C61.5545 19.6542 60.6621 17.9601 59.09 16.7598C57.5586 15.5905 57.012 15.4489 53.8042 15.3902L51.0234 15.3394L50.6014 15.7652ZM74.1827 18.8199C75.1092 19.2561 75.8706 20.1248 76.1458 21.0598C76.5821 22.5424 76.3377 23.507 75.2487 24.5991C74.3899 25.4604 73.7602 25.7308 72.6178 25.7285C71.2574 25.7258 69.6674 24.5644 69.326 23.3244C68.4636 20.192 71.3706 17.4957 74.1827 18.8199ZM56.4617 18.9203C57.143 19.2531 57.8424 19.9192 58.1683 20.5453C58.4863 21.1562 58.5692 22.8383 58.3119 23.4579C58.0148 24.1735 57.4257 24.8262 56.6757 25.2708C56.0877 25.6192 55.8869 25.6583 54.6844 25.6586L53.3469 25.6589L53.3093 22.1433L53.2716 18.6277H54.5671C55.5875 18.6277 55.9897 18.6899 56.4617 18.9203Z" fill="#385661"/>
</svg>
