<svg width="24" height="24" viewBox="0 0 24 24" fill="none" xmlns="http://www.w3.org/2000/svg">
<path d="M16.1461 4.14592C16.1925 4.09935 16.2477 4.06241 16.3084 4.0372C16.3692 4.012 16.4343 3.99902 16.5001 3.99902C16.5658 3.99902 16.6309 4.012 16.6917 4.0372C16.7524 4.06241 16.8076 4.09935 16.8541 4.14592L19.8541 7.14592C19.9006 7.19236 19.9376 7.24754 19.9628 7.30828C19.988 7.36903 20.0009 7.43415 20.0009 7.49992C20.0009 7.56568 19.988 7.63081 19.9628 7.69155C19.9376 7.7523 19.9006 7.80747 19.8541 7.85392L9.85405 17.8539C9.80607 17.9016 9.74891 17.939 9.68605 17.9639L4.68605 19.9639C4.59519 20.0003 4.49565 20.0092 4.39977 19.9895C4.30389 19.9699 4.2159 19.9225 4.14669 19.8533C4.07748 19.7841 4.03011 19.6961 4.01044 19.6002C3.99078 19.5043 3.99968 19.4048 4.03605 19.3139L6.03605 14.3139C6.06098 14.2511 6.0984 14.1939 6.14605 14.1459L16.1461 4.14592ZM15.2071 6.49992L17.5001 8.79292L18.7931 7.49992L16.5001 5.20692L15.2071 6.49992ZM16.7931 9.49992L14.5001 7.20692L8.00005 13.7069V13.9999H8.50005C8.63266 13.9999 8.75984 14.0526 8.8536 14.1464C8.94737 14.2401 9.00005 14.3673 9.00005 14.4999V14.9999H9.50005C9.63266 14.9999 9.75984 15.0526 9.8536 15.1464C9.94737 15.2401 10.0001 15.3673 10.0001 15.4999V15.9999H10.2931L16.7931 9.49992ZM7.03205 14.6749L6.92605 14.7809L5.39805 18.6019L9.21905 17.0739L9.32505 16.9679C9.22967 16.9323 9.14744 16.8684 9.08937 16.7847C9.03129 16.7011 9.00013 16.6017 9.00005 16.4999V15.9999H8.50005C8.36744 15.9999 8.24026 15.9472 8.1465 15.8535C8.05273 15.7597 8.00005 15.6325 8.00005 15.4999V14.9999H7.50005C7.39823 14.9998 7.29886 14.9687 7.21523 14.9106C7.1316 14.8525 7.06769 14.7703 7.03205 14.6749Z" fill="#212529"/>
</svg>
