<svg width="40" height="40" viewBox="0 0 40 40" fill="none" xmlns="http://www.w3.org/2000/svg">
<g id="load_icon">
<g id="Ellipse 23">
<mask id="path-1-inside-1_238_1429" fill="white">
<path d="M32.2076 20.0003C32.8293 20.0003 33.3382 20.5052 33.2858 21.1248C33.0962 23.3653 32.3422 25.5282 31.0862 27.4079C29.6211 29.6006 27.5388 31.3095 25.1024 32.3187C22.6661 33.3279 19.9852 33.5919 17.3988 33.0775C14.8123 32.563 12.4366 31.2931 10.5719 29.4284C8.70717 27.5637 7.43729 25.1879 6.92282 22.6015C6.40835 20.0151 6.6724 17.3342 7.68157 14.8979C8.69073 12.4615 10.3997 10.3791 12.5924 8.91406C14.4721 7.65806 16.635 6.90409 18.8755 6.71448C19.495 6.66205 20 7.17099 20 7.79271C20 8.41443 19.4946 8.91251 18.8761 8.97555C17.0815 9.15849 15.3525 9.77756 13.8432 10.7861C12.0208 12.0038 10.6004 13.7345 9.76162 15.7595C8.92286 17.7844 8.7034 20.0126 9.131 22.1623C9.5586 24.312 10.614 26.2866 12.1639 27.8364C13.7137 29.3862 15.6883 30.4417 17.838 30.8693C19.9877 31.2969 22.2159 31.0774 24.2408 30.2387C26.2658 29.3999 27.9965 27.9795 29.2142 26.1571C30.2227 24.6478 30.8418 22.9188 31.0247 21.1241C31.0878 20.5056 31.5859 20.0003 32.2076 20.0003Z"/>
</mask>
<path d="M32.2076 20.0003C32.8293 20.0003 33.3382 20.5052 33.2858 21.1248C33.0962 23.3653 32.3422 25.5282 31.0862 27.4079C29.6211 29.6006 27.5388 31.3095 25.1024 32.3187C22.6661 33.3279 19.9852 33.5919 17.3988 33.0775C14.8123 32.563 12.4366 31.2931 10.5719 29.4284C8.70717 27.5637 7.43729 25.1879 6.92282 22.6015C6.40835 20.0151 6.6724 17.3342 7.68157 14.8979C8.69073 12.4615 10.3997 10.3791 12.5924 8.91406C14.4721 7.65806 16.635 6.90409 18.8755 6.71448C19.495 6.66205 20 7.17099 20 7.79271C20 8.41443 19.4946 8.91251 18.8761 8.97555C17.0815 9.15849 15.3525 9.77756 13.8432 10.7861C12.0208 12.0038 10.6004 13.7345 9.76162 15.7595C8.92286 17.7844 8.7034 20.0126 9.131 22.1623C9.5586 24.312 10.614 26.2866 12.1639 27.8364C13.7137 29.3862 15.6883 30.4417 17.838 30.8693C19.9877 31.2969 22.2159 31.0774 24.2408 30.2387C26.2658 29.3999 27.9965 27.9795 29.2142 26.1571C30.2227 24.6478 30.8418 22.9188 31.0247 21.1241C31.0878 20.5056 31.5859 20.0003 32.2076 20.0003Z" stroke="white" stroke-width="4" mask="url(#path-1-inside-1_238_1429)"/>
</g>
</g>
</svg>
