<svg width="24" height="24" viewBox="0 0 24 24" fill="none" xmlns="http://www.w3.org/2000/svg">
<path fill-rule="evenodd" clip-rule="evenodd" d="M18 8.5V18C18 18.5304 17.7893 19.0391 17.4142 19.4142C17.0391 19.7893 16.5304 20 16 20V19C16.2652 19 16.5196 18.8946 16.7071 18.7071C16.8946 18.5196 17 18.2652 17 18V8.5H15C14.6022 8.5 14.2206 8.34196 13.9393 8.06066C13.658 7.77936 13.5 7.39782 13.5 7V5H8C7.73478 5 7.48043 5.10536 7.29289 5.29289C7.10536 5.48043 7 5.73478 7 6V15H6V6C6 5.46957 6.21071 4.96086 6.58579 4.58579C6.96086 4.21071 7.46957 4 8 4H13.5L18 8.5ZM10.161 17.666V18.188C10.161 18.444 10.122 18.658 10.044 18.829C9.97762 18.9872 9.86549 19.122 9.722 19.216C9.58064 19.3013 9.41808 19.345 9.253 19.342C9.08729 19.345 8.92406 19.3014 8.782 19.216C8.63969 19.1216 8.52837 18.9873 8.462 18.83C8.37788 18.6267 8.338 18.4079 8.345 18.188V17.666C8.345 17.409 8.385 17.195 8.462 17.025C8.52821 16.8673 8.63953 16.7327 8.782 16.638C8.92342 16.5508 9.08689 16.506 9.253 16.509C9.429 16.509 9.585 16.552 9.722 16.639C9.86534 16.7328 9.97745 16.8672 10.044 17.025C10.122 17.195 10.161 17.409 10.161 17.666ZM10.964 18.185V17.672C10.964 17.295 10.896 16.972 10.759 16.7C10.6306 16.4355 10.4253 16.2159 10.17 16.07C9.916 15.923 9.61 15.85 9.253 15.85C8.898 15.85 8.591 15.923 8.333 16.07C8.07741 16.2142 7.87191 16.4329 7.744 16.697C7.608 16.968 7.539 17.293 7.539 17.672V18.185C7.539 18.56 7.608 18.885 7.744 19.158C7.881 19.429 8.077 19.638 8.334 19.785C8.591 19.929 8.898 20.001 9.254 20.001C9.611 20.001 9.916 19.929 10.17 19.785C10.426 19.638 10.622 19.429 10.76 19.158C10.896 18.884 10.964 18.56 10.964 18.185ZM4 15.926V19.926H5.459C5.861 19.926 6.194 19.846 6.458 19.688C6.72516 19.5282 6.93377 19.2866 7.053 18.999C7.183 18.699 7.249 18.337 7.249 17.915C7.249 17.495 7.184 17.137 7.053 16.84C6.93492 16.5556 6.72794 16.317 6.463 16.16C6.2 16.004 5.865 15.926 5.459 15.926H4ZM4.791 16.571H5.354C5.602 16.571 5.804 16.621 5.963 16.723C6.12804 16.8309 6.25256 16.9906 6.317 17.177C6.396 17.378 6.435 17.629 6.435 17.93C6.4381 18.1294 6.41524 18.3285 6.367 18.522C6.33135 18.6746 6.26463 18.8183 6.171 18.944C6.08399 19.0561 5.96872 19.1431 5.837 19.196C5.68266 19.2537 5.51875 19.2816 5.354 19.278H4.79V16.57L4.791 16.571ZM12.213 17.054C12.1396 17.2567 12.1046 17.4714 12.11 17.687V18.182C12.11 18.428 12.144 18.637 12.213 18.809C12.2704 18.967 12.3743 19.104 12.511 19.202C12.6537 19.2925 12.8202 19.3381 12.989 19.333C13.1278 19.3362 13.2653 19.306 13.39 19.245C13.5016 19.1883 13.5958 19.1026 13.663 18.997C13.7308 18.8869 13.771 18.762 13.78 18.633H14.545V18.709C14.5355 18.9506 14.4571 19.1845 14.319 19.383C14.182 19.577 13.999 19.728 13.769 19.837C13.5226 19.9498 13.254 20.0059 12.983 20.001C12.623 20.001 12.319 19.929 12.069 19.785C11.8194 19.6388 11.6202 19.4201 11.498 19.158C11.368 18.886 11.304 18.561 11.304 18.182V17.684C11.304 17.305 11.37 16.979 11.501 16.706C11.631 16.432 11.822 16.221 12.072 16.073C12.324 15.924 12.628 15.85 12.983 15.85C13.202 15.85 13.404 15.882 13.59 15.947C13.777 16.009 13.94 16.1 14.079 16.219C14.2194 16.3385 14.3334 16.4859 14.4136 16.6519C14.4939 16.8179 14.5386 16.9987 14.545 17.183V17.256H13.78C13.7707 17.1216 13.7295 16.9914 13.66 16.876C13.5946 16.7656 13.5002 16.6753 13.387 16.615C13.265 16.5488 13.1278 16.5153 12.989 16.518C12.8202 16.5136 12.6542 16.5618 12.514 16.656C12.3769 16.7563 12.2722 16.8947 12.213 17.054Z" fill="black"/>
</svg>
