<svg width="305" height="305" viewBox="0 0 305 305" fill="none" xmlns="http://www.w3.org/2000/svg">
<path d="M50.833 85.7816C50.833 79.8833 53.1283 74.2265 57.2139 70.0558C61.2995 65.8851 66.8408 63.542 72.6187 63.542H112.763C126.676 63.542 138.324 71.8448 146.327 81.0964C152.282 87.9759 159.471 93.1948 167.023 93.1948H232.381C238.159 93.1948 243.7 95.5379 247.785 99.7086C251.871 103.879 254.166 109.536 254.166 115.434V219.219C254.166 225.117 251.871 230.774 247.785 234.945C243.7 239.116 238.159 241.459 232.381 241.459H72.6187C66.8408 241.459 61.2995 239.116 57.2139 234.945C53.1283 230.774 50.833 225.117 50.833 219.219V85.7816ZM72.6187 78.3684C70.6927 78.3684 68.8457 79.1494 67.4838 80.5397C66.1219 81.9299 65.3568 83.8155 65.3568 85.7816V122.848H239.643V115.434C239.643 113.468 238.877 111.583 237.516 110.192C236.154 108.802 234.307 108.021 232.381 108.021H167.023C153.023 108.021 142.188 98.6954 135.449 90.9115C128.884 83.3204 120.838 78.3684 112.763 78.3684H72.6187ZM239.643 137.674H65.3568V219.219C65.3568 221.185 66.1219 223.071 67.4838 224.461C68.8457 225.851 70.6927 226.632 72.6187 226.632H232.381C234.307 226.632 236.154 225.851 237.516 224.461C238.877 223.071 239.643 221.185 239.643 219.219V137.674Z" fill="#B4BBD7"/>
</svg>
