<svg width="65" height="65" viewBox="0 0 65 65" fill="none" xmlns="http://www.w3.org/2000/svg">
<g id="Frame 8">
<path id="telegram-cloud-document-4-5843520567776382845 1 (Traced)" fill-rule="evenodd" clip-rule="evenodd" d="M10.9798 4.78442C10.7499 4.93174 10.5781 5.16187 10.4979 5.43L10.373 5.84676L9.56037 5.96083C7.53641 6.24508 5.83804 7.71446 5.31765 9.63151C5.21313 10.0168 5.18774 15.3008 5.20485 33.1516C5.22659 55.8831 5.22969 56.1833 5.44855 56.8388C5.91133 58.225 6.78987 59.1887 8.2813 59.9463L9.12331 60.3739L15.8306 60.4049C23.2779 60.4391 23.0029 60.4645 23.3601 59.711C23.5912 59.2237 23.5135 58.7863 23.1322 58.4277L22.8532 58.1654L16.3777 58.1101L9.9023 58.0549L9.19549 57.6715C8.40933 57.2453 7.96222 56.7206 7.76223 55.9897C7.664 55.631 7.63994 49.9686 7.66356 32.8217L7.6949 10.1284L7.97083 9.64134C8.37478 8.9283 8.90919 8.54709 9.74392 8.3767L10.4541 8.23171L10.5093 20.6648C10.5623 32.6012 10.573 33.1177 10.776 33.5948C11.3394 34.919 11.7682 35.2996 15.476 37.7659C17.2667 38.9571 21.3394 41.6682 24.5263 43.7905C27.7132 45.9128 30.6413 47.8011 31.0331 47.9866C31.6741 48.2901 31.8512 48.3236 32.7991 48.322C34.4641 48.3189 33.2429 49.0333 45.824 40.7028C52.3681 36.3697 52.9232 35.9827 53.7216 35.196C54.4087 34.5189 54.7899 33.8617 54.984 33.0195C55.0526 32.7226 55.0943 27.9969 55.0961 20.3567L55.0987 8.16766L55.5615 8.24176C56.1866 8.34181 57.0512 8.82847 57.3875 9.26953C57.9912 10.0614 57.9583 8.70622 57.9635 32.9949C57.9689 58.1671 58.029 56.2825 57.1942 57.1178C56.9573 57.3548 56.5503 57.6627 56.2897 57.8019L55.8161 58.0549L49.2869 58.0874L42.7576 58.1199L42.4742 58.4034C42.0998 58.778 42.0048 59.3102 42.2331 59.7521C42.6194 60.4995 42.2722 60.4666 49.4906 60.4388C55.5331 60.4155 56.0582 60.3984 56.6851 60.2044C58.3526 59.6888 59.6586 58.3937 60.2446 56.6746C60.4445 56.0882 60.4515 55.2747 60.4498 33.153C60.448 12.1486 60.4326 10.1852 60.2648 9.59518C59.7086 7.63947 57.9383 6.13354 56.0529 6.01251L55.2477 5.96072L55.1215 5.48819C55.0287 5.14166 54.8952 4.95382 54.62 4.78376C53.964 4.37804 53.5978 4.46363 52.2853 5.32917L51.1063 6.10671L43.6626 6.10008C38.3094 6.09534 36.1502 6.12869 35.974 6.21891C35.113 6.65985 35.1498 7.82422 36.0409 8.33463C36.2196 8.43711 37.6988 8.48603 41.8543 8.52722L47.428 8.58243L45.331 10.0148C40.7686 13.131 39.6956 13.8302 39.5366 13.7901C39.3884 13.7527 36.0279 11.4218 31.5917 8.2793C29.5147 6.80794 29.1368 6.5831 28.2949 6.3184C27.627 6.10837 27.2831 6.09776 21.1103 6.09776H14.6272L13.93 5.64688C12.1329 4.48472 11.6623 4.34712 10.9798 4.78442ZM17.3302 10.9004C18.526 11.6893 22.2236 14.1361 25.5472 16.3377L31.59 20.3404V32.9374C31.59 39.8656 31.5528 45.511 31.5072 45.4825C31.4616 45.4541 29.9096 44.4239 28.0581 43.1932C23.6017 40.2308 17.7293 36.3442 15.5078 34.8869C14.1663 34.0069 13.6414 33.5966 13.4107 33.2479L13.103 32.7828L13.0478 22.9465C13.0175 17.5364 13.006 11.9809 13.0223 10.601L13.0519 8.0919L14.104 8.77889C14.6825 9.15667 16.1343 10.1113 17.3302 10.9004ZM52.5046 32.5636C52.4128 32.8797 52.2027 33.2987 52.0379 33.4947C51.8732 33.6906 50.7188 34.5216 49.4727 35.3411C48.2268 36.1607 44.3372 38.739 40.8294 41.0707C37.3217 43.4025 34.3789 45.3382 34.29 45.3723C34.1488 45.4265 34.1285 43.8604 34.1285 32.9058V20.3771L37.2947 18.2896C39.0363 17.1415 43.1958 14.381 46.5382 12.1552L52.6154 8.10825L52.6434 20.0486C52.6679 30.4383 52.6499 32.0634 52.5046 32.5636ZM27.8926 8.79446C28.1961 8.94033 29.0763 9.49889 29.8484 10.0358C33.1578 12.3365 36.4253 14.592 36.8636 14.8784C37.1236 15.0481 37.3222 15.2273 37.3051 15.2766C37.2662 15.3889 33.0335 18.245 32.9061 18.245C32.8228 18.245 28.8702 15.6472 21.0772 10.4703C19.6356 9.51258 18.456 8.68359 18.456 8.62815C18.456 8.56885 20.2895 8.52766 22.8983 8.52832L27.3407 8.52943L27.8926 8.79446ZM11.4884 36.4311C10.7518 36.8885 10.3376 38.2032 10.6094 39.2204C10.9638 40.5462 11.3563 40.9528 13.931 42.6621C14.9932 43.3673 19.1402 46.123 23.1467 48.7859C27.1531 51.4488 30.7042 53.7404 31.0381 53.8785C31.5375 54.085 31.8505 54.1295 32.804 54.1295C34.6257 54.1295 33.469 54.7995 45.969 46.5029C49.6853 44.0363 53.0312 41.7915 53.4045 41.5142C54.6633 40.5797 55.2342 39.3109 54.9987 37.9719C54.8666 37.2209 54.6517 36.8648 54.1065 36.4935C53.6616 36.1906 53.2218 36.1759 52.8802 36.4528C52.6484 36.6406 52.6178 36.7769 52.5615 37.8748C52.5237 38.615 52.444 39.1559 52.3576 39.26C52.2795 39.3541 51.0889 40.1652 49.7115 41.0625C48.3342 41.9598 44.3515 44.6053 40.861 46.9413C37.3706 49.2774 34.3062 51.2813 34.0512 51.3945C33.5288 51.6264 32.272 51.6837 31.7877 51.4977C31.4468 51.3667 31.6539 51.5028 23.257 45.895C19.7969 43.5841 16.1649 41.1632 15.1859 40.5152C14.2068 39.8672 13.3377 39.2549 13.2544 39.1548C13.1573 39.0381 13.0824 38.5586 13.0456 37.8181C12.9938 36.7773 12.9626 36.6429 12.7299 36.4543C12.4146 36.199 11.8785 36.189 11.4884 36.4311ZM11.385 42.6178C10.8744 43.0476 10.6248 43.6733 10.6232 44.5273C10.6208 45.8279 11.4095 46.9977 12.984 48.0287C13.4137 48.3101 17.4528 50.9942 21.9598 53.9933C26.4667 56.9926 30.4897 59.6055 30.8997 59.7998C31.5987 60.1311 31.7207 60.153 32.8592 60.1515C33.9586 60.1502 34.141 60.1199 34.7907 59.8298C35.1853 59.6536 36.5759 58.7937 37.881 57.9189C39.1862 57.0441 43.1346 54.406 46.6554 52.0566C53.6419 47.3946 54.4417 46.7702 54.8047 45.6948C55.0678 44.915 55.0443 43.871 54.7495 43.2435C54.3536 42.4007 53.4572 42.0589 52.8766 42.5293C52.6445 42.7172 52.6095 42.8594 52.5507 43.8541C52.4988 44.7297 52.4396 45.0193 52.2741 45.2062C52.1584 45.3371 51.2689 45.9752 50.2976 46.6245C49.3264 47.2738 46.0484 49.47 43.0132 51.505C39.9781 53.54 36.7497 55.7034 35.8392 56.3127C34.0256 57.5262 33.7127 57.6684 32.8567 57.6684C31.9918 57.6684 31.5435 57.4606 29.6936 56.202C28.7637 55.5695 24.7498 52.8796 20.7737 50.2246C16.7976 47.5696 13.4328 45.2733 13.2962 45.1217C13.0783 44.88 13.0478 44.7271 13.0478 43.8734C13.0478 43.0565 13.0112 42.8541 12.819 42.6097C12.4994 42.2031 11.8735 42.2066 11.385 42.6178Z" fill="#385661"/>
</g>
</svg>
