<svg width="58" height="26" viewBox="0 0 58 26" fill="none" xmlns="http://www.w3.org/2000/svg">
<path d="M45.2587 25.471C44.9121 25.471 44.5654 25.3433 44.2917 25.0696C43.7626 24.5405 43.7626 23.6647 44.2917 23.1356L54.3997 13.0277L44.2917 2.91983C43.7626 2.39072 43.7626 1.51494 44.2917 0.985825C44.8208 0.456711 45.6966 0.456711 46.2257 0.985825L57.3007 12.0607C57.8298 12.5898 57.8298 13.4656 57.3007 13.9947L46.2257 25.0696C45.9521 25.3433 45.6054 25.471 45.2587 25.471Z" fill="#292D32"/>
<path d="M54.6583 13.9694H3.24091C1.98832 13.9694 0.949585 13.516 0.949585 12.9694C0.949585 12.4227 1.98832 11.9694 3.24091 11.9694H54.6583C55.9109 11.9694 56.9496 12.4227 56.9496 12.9694C56.9496 13.516 55.9109 13.9694 54.6583 13.9694Z" fill="#292D32"/>
</svg>
