<svg width="96" height="100" viewBox="0 0 96 100" fill="none" xmlns="http://www.w3.org/2000/svg">
<path d="M5.00156 1.46484C3.49238 1.46484 2.26914 2.68828 2.26914 4.19746V95.4145C2.26914 97.1381 3.66797 98.5354 5.39356 98.5354H56.7293L77.9574 77.234V4.19746C77.9574 2.68828 76.734 1.46484 75.2248 1.46484H5.00156Z" fill="#FFF9E9"/>
<path d="M75.2248 1.46484H67.217C68.7262 1.46484 69.9494 2.68828 69.9494 4.19746V77.2338L69.8393 85.3799L77.9572 77.2338V4.19746C77.9572 2.68828 76.7338 1.46484 75.2248 1.46484Z" fill="#FFF4D6"/>
<path d="M56.5271 98.5351V79.7111C56.5271 78.2312 57.7272 77.0316 59.2072 77.0316H77.9572L56.5271 98.5351Z" fill="#FFEEC2"/>
<path d="M13.11 69.7459H43.1037V84.7258H13.11V69.7459Z" fill="#FDF385"/>
<path d="M87.4492 17.4725L80.6672 13.7364L86.415 3.44768C87.4535 1.5887 89.8117 0.917798 91.6834 1.94885L91.6848 1.94963C93.558 2.98167 94.2342 5.32737 93.1947 7.18772L87.4492 17.4725Z" fill="#FED23A"/>
<path d="M55.1645 67.3297C54.2266 64.0787 54.626 60.5885 56.274 57.6328L64.627 42.6514C64.6998 42.5209 64.8654 42.4738 64.9969 42.5463L71.1012 45.9092C71.2326 45.9816 71.2801 46.1459 71.207 46.2764L62.842 61.2793C61.2012 64.2223 58.457 66.3936 55.2135 67.3156L55.1645 67.3297Z" fill="#54B1FF"/>
<path d="M59.1047 60.276L59.1025 60.2748C56.1691 58.6588 55.1104 54.9855 56.7379 52.0721L80.8855 8.84726C81.6521 7.47519 83.3846 6.97949 84.7621 7.73847L90.3764 10.8314C91.7635 11.5957 92.2639 13.341 91.492 14.7228L67.3547 57.9291C65.7285 60.84 62.0355 61.8906 59.1047 60.276Z" fill="#FDF385"/>
<path d="M59.1047 60.276L59.1025 60.2748C56.1691 58.6588 55.1104 54.9855 56.7379 52.0721L80.8855 8.84726C81.6521 7.47519 83.3846 6.97949 84.7621 7.73847L90.3764 10.8314C91.7635 11.5957 92.2639 13.341 91.492 14.7228L67.3547 57.9291C65.7285 60.84 62.0355 61.8906 59.1047 60.276Z" fill="#FDF385"/>
<path d="M90.3764 10.8315L85.3873 8.08282C86.5543 8.91661 86.935 10.5108 86.2186 11.793L62.0813 54.9994C60.9848 56.9619 58.949 58.0772 56.8408 58.102C57.3715 58.9826 58.134 59.7414 59.1025 60.275L59.1047 60.2762C62.0355 61.8908 65.7285 60.8402 67.3549 57.9293L91.4918 14.7229C92.2639 13.341 91.7635 11.5957 90.3764 10.8315Z" fill="#FAEE6E"/>
<path d="M92.1109 19.8971L77.5572 11.8793C76.0729 11.0615 74.202 11.5934 73.3787 13.0672C72.5553 14.541 73.0912 16.3987 74.5758 17.2164L86.4416 23.7533L77.6785 39.4395C76.8551 40.9133 77.391 42.7709 78.8756 43.5887C80.36 44.4065 82.2309 43.8746 83.0543 42.4008L93.3082 24.0459C94.1315 22.5725 93.5955 20.7149 92.1109 19.8971Z" fill="#54B1FF"/>
<path d="M92.1109 19.8971L84.1254 15.4979L81.1564 20.842L86.4414 23.7535L77.6783 39.4397C76.8549 40.9135 77.3908 42.7711 78.8754 43.5889C80.3598 44.4067 82.2307 43.8748 83.0541 42.401L93.308 24.0461C94.1314 22.5725 93.5955 20.7149 92.1109 19.8971Z" fill="#3DA7FF"/>
<path d="M13.1102 32.6688H57.3523C58.1615 32.6688 58.8172 32.0131 58.8172 31.2039C58.8172 30.3947 58.1615 29.7391 57.3523 29.7391H13.1102C12.301 29.7391 11.6453 30.3947 11.6453 31.2039C11.6453 32.0131 12.301 32.6688 13.1102 32.6688Z" fill="#050525"/>
<path d="M13.1102 44.5277H51.7617C52.5709 44.5277 53.2266 43.872 53.2266 43.0629C53.2266 42.2537 52.5709 41.598 51.7617 41.598H13.1102C12.301 41.598 11.6453 42.2537 11.6453 43.0629C11.6453 43.872 12.301 44.5277 13.1102 44.5277Z" fill="#050525"/>
<path d="M13.1102 56.3867H46.9768C47.7859 56.3867 48.4416 55.7311 48.4416 54.9219C48.4416 54.1127 47.7859 53.457 46.9768 53.457H13.1102C12.301 53.457 11.6453 54.1127 11.6453 54.9219C11.6453 55.7311 12.301 56.3867 13.1102 56.3867Z" fill="#050525"/>
<path d="M13.1102 20.3729H65.1648C65.974 20.3729 66.6297 19.7172 66.6297 18.908C66.6297 18.0988 65.974 17.4432 65.1648 17.4432H13.1102C12.301 17.4432 11.6453 18.0988 11.6453 18.908C11.6453 19.7172 12.301 20.3729 13.1102 20.3729Z" fill="#050525"/>
<path d="M11.6453 84.7258C11.6453 85.535 12.301 86.1906 13.1102 86.1906H43.1037C43.9129 86.1906 44.5686 85.535 44.5686 84.7258V69.7459C44.5686 68.9367 43.9129 68.2811 43.1037 68.2811H33.826C31.9928 68.2811 31.9094 71.2108 33.826 71.2108H41.6389V83.2609H14.575V71.2108H16.7984C18.6316 71.2108 18.715 68.2811 16.7984 68.2811H13.1102C12.301 68.2811 11.6453 68.9367 11.6453 69.7459V84.7258Z" fill="#050525"/>
<path d="M94.9848 21.3281C94.6516 20.1641 93.8818 19.2 92.8178 18.6141L91.4246 17.8467L92.7703 15.4375C93.5252 14.0867 93.4902 12.4168 92.6906 11.0938L94.4734 7.90234C97.8506 1.85703 88.4719 -3.23828 85.1359 2.7332L83.3543 5.92246C81.6422 5.9373 80.1779 6.96523 79.4219 8.46309V4.19746C79.4221 1.88301 77.5391 0 75.2248 0H5.00176C2.68711 0 0.804298 1.88301 0.804298 4.19746V95.4143C0.804298 97.9428 2.86309 100 5.39356 100H13.6205C15.4537 100 15.5371 97.0703 13.6205 97.0703H5.39356C4.47832 97.0703 3.73399 96.3273 3.73399 95.4143V4.19746C3.73399 3.49844 4.30274 2.92969 5.00176 2.92969H75.2248C75.9238 2.92969 76.4924 3.49844 76.4924 4.19746V10.0527C71.7529 9.61582 69.6961 16.1648 73.8439 18.4842C73.3633 19.368 71.091 23.3047 70.4875 24.4576C69.6398 26.077 72.1865 27.5283 73.083 25.8164C73.6584 24.7174 75.915 20.808 76.4096 19.8994L84.4439 24.3258C84.4439 24.3258 66.4271 56.9912 65.4297 58.2189C62.0637 61.8283 55.4207 57.5783 57.8613 53.0455C61.4486 46.4687 64.7111 40.5229 68.3141 34.3539C69.2385 32.7709 66.7508 31.2215 65.7842 32.8766C62.1615 39.0797 58.8879 45.0455 55.2857 51.6496C54.3225 53.4383 54.1965 55.465 54.8014 57.2879C53.142 60.4867 52.7568 64.2691 53.757 67.7361C54.0031 68.5893 54.833 68.8982 55.6141 68.725C59.1223 67.7277 62.0508 65.4711 63.909 62.3535C65.2924 62.0223 66.7586 61.2297 67.6703 60.1074C68.8662 58.6459 75.0797 47.2854 76.4926 44.7273V75.567H59.2074C56.9219 75.567 55.0625 77.4262 55.0625 79.7113V97.0703H22.4092C20.576 97.0703 20.4926 100 22.4092 100H56.7293C57.1186 100 57.492 99.8449 57.767 99.5691L78.9949 78.2676C79.2684 77.9932 79.4223 77.6211 79.4223 77.2336V45.3363C81.3311 45.7389 83.3787 44.8242 84.3332 43.1158L94.5871 24.7607C95.1756 23.7068 95.317 22.4879 94.9848 21.3281ZM56.2461 65.3945C56.0064 63.6863 56.166 61.9344 56.7025 60.2971C57.7131 61.2736 58.9768 61.9957 60.3426 62.3348C59.2328 63.6578 57.8383 64.7023 56.2461 65.3945ZM90.9721 3.2291C92.0648 3.88477 92.5596 5.32129 91.9158 6.47324L90.4062 9.17539L86.1904 6.85293L87.6937 4.16191C88.3381 3.00859 89.808 2.59121 90.9721 3.2291ZM84.0551 9.02148L89.6693 12.1145C90.3762 12.5951 90.5574 13.2264 90.2129 14.0082L88.8584 16.4326L80.8045 11.9957C81.3799 10.9658 82.3668 8.09102 84.0551 9.02148ZM57.992 79.7111C57.992 79.0414 58.5371 78.4965 59.2072 78.4965H74.4295L57.9922 94.99V79.7111H57.992ZM92.0291 23.332L81.7752 41.6869C80.9182 43.2219 78.3629 42.3213 78.8039 40.5451C81.9037 34.9412 84.8277 29.6719 87.7252 24.4686C88.1168 23.7654 87.848 22.8531 87.1482 22.4707L75.2822 15.9336C73.5635 14.9871 75.0022 12.1447 76.8502 13.1625L91.4039 21.1803C92.117 21.6348 92.5043 22.4822 92.0291 23.332Z" fill="#050525"/>
</svg>
