<svg width="100" height="100" viewBox="0 0 100 100" fill="none" xmlns="http://www.w3.org/2000/svg">
<path d="M3.28066 1.46484H40.8465L58.8615 19.3387V80.2314C58.8615 81.2305 58.0486 82.0402 57.0457 82.0402H3.28066C2.27793 82.0402 1.46484 81.2305 1.46484 80.2314V3.27363C1.46484 2.27461 2.27773 1.46484 3.28066 1.46484Z" fill="#FFF9E9"/>
<path d="M50.931 11.4705L51.0488 19.3387V80.2315C51.0488 81.2305 50.2359 82.0402 49.233 82.0402H57.0455C58.0482 82.0402 58.8613 81.2305 58.8613 80.2315V19.3387L50.931 11.4705Z" fill="#FFF4D6"/>
<path d="M40.8465 1.46484V17.6473C40.8465 18.6463 41.6594 19.4561 42.6623 19.4561H58.8615L40.8465 1.46484Z" fill="#FFEEC2"/>
<path d="M92.2789 98.5352H41.9029C38.4476 98.5352 35.6467 95.7342 35.6467 92.2789V70.5157C35.6467 67.0604 38.4476 64.2594 41.9029 64.2594H92.2791C95.7344 64.2594 98.5353 67.0604 98.5353 70.5157V92.2789C98.5351 95.7342 95.7342 98.5352 92.2789 98.5352Z" fill="#ABDAFF"/>
<path d="M92.2789 64.2596H84.4664C87.9217 64.2596 90.7227 67.0606 90.7227 70.5156V92.2789C90.7227 95.7342 87.9217 98.5352 84.4664 98.5352H92.2789C95.7342 98.5352 98.5352 95.7342 98.5352 92.2789V70.5156C98.5352 67.0606 95.7342 64.2596 92.2789 64.2596Z" fill="#99D3FF"/>
<path d="M92.2791 62.7947H60.3264V19.3389C60.3264 18.9484 60.1705 18.574 59.8932 18.299L41.8781 0.425C41.6072 0.15625 41.2279 0 40.8465 0H3.28066C1.47168 0 0 1.46855 0 3.27363V14.4531C0 16.3471 2.92969 16.3471 2.92969 14.4531V3.27363C2.92969 3.08398 3.08711 2.92969 3.28066 2.92969H39.3816V17.6473C39.3816 19.4523 40.8533 20.9209 42.6621 20.9209H57.3967V62.7947H41.9029C37.6455 62.7947 34.1818 66.2582 34.1818 70.5156V80.5756H3.28066C3.08711 80.5756 2.92969 80.4213 2.92969 80.2316V22.0703C2.92969 20.1764 0 20.1764 0 22.0703V80.2316C0 82.0367 1.47168 83.5053 3.28066 83.5053H34.1818V92.2791C34.1818 96.5365 37.6455 100 41.9029 100H82.4203C84.3143 100 84.3143 97.0703 82.4203 97.0703H41.9029C39.2609 97.0703 37.1115 94.9209 37.1115 92.2791V70.5156C37.1115 67.8738 39.2609 65.7244 41.9029 65.7244H92.2791C94.9209 65.7244 97.0703 67.8738 97.0703 70.5156V92.2791C97.0703 94.9209 94.9209 97.0703 92.2791 97.0703H90.2256C88.3316 97.0703 88.3316 100 90.2256 100H92.2791C96.5365 100 100 96.5365 100 92.2791V70.5156C100 66.2582 96.5365 62.7947 92.2791 62.7947ZM42.6621 17.9912C42.4686 17.9912 42.3113 17.8369 42.3113 17.6473V4.99805L55.3217 17.9912H42.6621Z" fill="#050525"/>
<path d="M40.6942 89.185C40.6942 90.0545 41.2113 90.9035 42.1961 90.9035C42.3295 90.9029 45.4781 90.8908 46.734 90.8688C51.1447 90.7918 54.3463 86.9088 54.3463 81.6354C54.3463 76.0916 51.225 72.367 46.5791 72.367H42.159C41.3348 72.367 40.6942 73.0328 40.6942 73.8481V89.185ZM46.5791 75.2967C50.1459 75.2967 51.4166 78.5711 51.4166 81.6354C51.4166 84.632 49.9354 87.8828 46.6826 87.9395C45.9922 87.9518 44.6801 87.9608 43.6504 87.9668C43.6443 86.1373 43.6299 77.1938 43.6264 75.2967H46.5791Z" fill="#050525"/>
<path d="M86.957 74.8209C88.275 74.8209 89.5461 75.209 90.633 75.9434C92.2025 77.0033 93.8424 74.576 92.2728 73.5156C90.6998 72.453 88.8615 71.8912 86.9568 71.8912C81.7152 71.8912 77.4508 76.1557 77.4508 81.3973C77.4508 86.6391 81.7152 90.9035 86.9568 90.9035C89.332 90.9035 91.6107 89.9397 93.1453 88.1096C94.3621 86.6582 92.117 84.776 90.9004 86.2274C89.9603 87.3475 88.3943 87.9737 86.957 87.9737C83.3309 87.9737 80.3807 85.0235 80.3807 81.3971C80.3807 77.7707 83.3307 74.8209 86.957 74.8209Z" fill="#050525"/>
<path d="M56.3926 81.3973C56.3926 86.6391 60.657 90.9035 65.8986 90.9035C71.1402 90.9035 75.4047 86.6391 75.4047 81.3973C75.4047 76.1557 71.1402 71.8912 65.8986 71.8912C60.657 71.8912 56.3926 76.1557 56.3926 81.3973ZM72.475 81.3973C72.475 85.0235 69.525 87.9739 65.8986 87.9739C62.2723 87.9739 59.3223 85.0237 59.3223 81.3973C59.3223 77.7709 62.2723 74.8209 65.8986 74.8209C69.525 74.8209 72.475 77.7711 72.475 81.3973Z" fill="#050525"/>
<path d="M15.549 32.0256L20.1348 55.2084C20.5328 57.2236 23.4488 57.2353 24.0256 55.3504L30.1549 35.5482L36.257 55.3557C36.8391 57.2473 39.7465 57.2121 40.1482 55.2033L44.752 32.0711H47.3164C49.2104 32.0711 49.2104 29.1414 47.3164 29.1414H43.5498C42.851 29.1414 42.2496 29.635 42.1131 30.3203L37.9908 51.0332L31.551 30.1297C31.1469 28.8176 28.9774 28.7578 28.7086 30.3129L22.2951 51.033L18.1895 30.2766C18.0537 29.5902 17.452 29.0959 16.7525 29.0959H13.01C11.116 29.0959 11.116 32.0256 13.01 32.0256H15.549Z" fill="#050525"/>
</svg>
