<svg width="98" height="100" viewBox="0 0 98 100" fill="none" xmlns="http://www.w3.org/2000/svg">
<path d="M92.5069 98.5667H5.49313C3.29372 98.5667 1.51073 96.7809 1.51073 94.578V31.2586C1.51073 29.0558 3.29372 27.2699 5.49313 27.2699H92.5069C94.7063 27.2699 96.4893 29.0558 96.4893 31.2586V94.578C96.4891 96.7809 94.7063 98.5667 92.5069 98.5667Z" fill="#FED23A"/>
<path d="M92.5069 27.2699H84.8628C87.0622 27.2699 88.8452 29.0558 88.8452 31.2586V94.578C88.8452 96.7809 87.0622 98.5667 84.8628 98.5667H92.5069C94.7063 98.5667 96.4893 96.7809 96.4893 94.578V31.2586C96.4891 29.0556 94.7063 27.2699 92.5069 27.2699Z" fill="#FFC600"/>
<path d="M37.7678 1.4415L85.3098 6.14762C86.266 6.24221 86.9645 7.09415 86.8699 8.05043L80.1289 76.1472C80.0412 77.0328 79.2495 77.6795 78.3605 77.5914L30.6968 72.8731C29.8078 72.785 29.1582 71.9957 29.2458 71.1101L35.9993 2.88567C36.0871 2.0001 36.8788 1.35341 37.7678 1.4415Z" fill="#FAE19E"/>
<path d="M15.9549 16.6621L63.2654 10.0211C64.2171 9.8875 65.0967 10.5506 65.2303 11.5023L74.7425 79.2676C74.8661 80.1489 74.2492 80.964 73.3646 81.0882L25.933 87.7463C25.0484 87.8705 24.2308 87.2566 24.1072 86.3755L14.577 18.4828C14.4532 17.6014 15.0701 16.7863 15.9549 16.6621Z" fill="#FFEEC2"/>
<path d="M28.2033 22.584L75.9065 19.9785C76.866 19.9262 77.6865 20.6615 77.7388 21.6211L81.4709 89.9487C81.5194 90.8374 80.8356 91.5972 79.9436 91.6459L32.118 94.2579C31.226 94.3067 30.4635 93.6258 30.4149 92.7371L26.676 24.281C26.6274 23.3926 27.3112 22.6326 28.2033 22.584Z" fill="#FFF9E9"/>
<path d="M81.4709 89.9485L77.7388 21.6209C77.6864 20.6613 76.866 19.926 75.9065 19.9783L69.4117 20.333C69.8023 20.6313 70.0656 21.0915 70.0945 21.6207L73.8265 89.9484C73.8751 90.837 73.1913 91.5968 72.2992 91.6455L31.0138 93.9006C31.3144 94.1429 31.7014 94.2805 32.1178 94.2577L79.9434 91.6455C80.8356 91.597 81.5194 90.8372 81.4709 89.9485Z" fill="#FFF4D6"/>
<path d="M19.6304 27.2699H5.49313C3.29372 27.2699 1.51073 29.0558 1.51073 31.2586V94.578C1.51073 96.7809 3.29372 98.5667 5.49313 98.5667H92.5069C94.7063 98.5667 96.4893 96.7809 96.4893 94.578V39.6349H23.6128L19.6304 27.2699Z" fill="#FDF385"/>
<path d="M23.6128 39.6349L19.6304 27.2699H11.9862L15.9686 39.6349H23.6128Z" fill="#FAEE6E"/>
<path d="M88.845 39.6349V94.5778C88.845 96.7807 87.062 98.5666 84.8625 98.5666H92.5067C94.7061 98.5666 96.4891 96.7807 96.4891 94.5778V39.6349H88.845Z" fill="#FAEE6E"/>
<path d="M22.5176 71.1339H75.4825V84.2212H22.5176V71.1339Z" fill="#FFF9E9"/>
<path d="M92.5069 25.8364H86.5494L88.2961 8.19147C88.4685 6.45033 87.1921 4.8936 85.451 4.72122L80.135 4.19511C78.2905 4.01089 78.0088 6.86521 79.8526 7.04771L85.1683 7.57382C85.3367 7.59045 85.4599 7.74104 85.4433 7.90921L82.4447 38.2016H80.0796L79.1696 21.5427C79.0754 19.8157 77.5569 18.4501 75.8281 18.5474L67.7284 18.9898L66.6494 11.3032C66.4089 9.58824 64.7805 8.36174 63.0661 8.60177L36.5046 12.3302L37.4255 3.0269C37.4353 2.92905 37.5251 2.8593 37.6266 2.86771L71.9812 6.26839C73.826 6.45224 74.1075 3.5983 72.2637 3.41579L37.909 0.0151102C36.2327 -0.151341 34.7384 1.07382 34.5731 2.74445L33.5836 12.7403L15.7558 15.2428C14.0899 15.4767 12.9246 17.0195 13.1577 18.6821L14.162 25.8366H5.49312C2.50694 25.8366 0.0776367 28.269 0.0776367 31.2588V94.5782C0.0776367 97.568 2.50694 100 5.49312 100H15.1748C17.0279 100 17.0279 97.1337 15.1748 97.1337H5.49312C4.08756 97.1337 2.94419 95.9872 2.94419 94.5782V31.2586C2.94419 29.8494 4.08756 28.703 5.49312 28.703H18.5862L22.2485 40.0742C22.4392 40.6666 22.9904 41.0681 23.6128 41.0681H95.056V94.5778C95.056 95.987 93.9126 97.1333 92.5071 97.1333H23.5834C21.7302 97.1333 21.7302 99.9998 23.5834 99.9998H92.5069C95.4931 99.9998 97.9224 97.5675 97.9224 94.5778V31.2586C97.9224 28.2688 95.4931 25.8364 92.5069 25.8364ZM75.9848 21.4095C76.1723 21.4168 76.2801 21.5133 76.3076 21.699L77.2091 38.2016H28.8718L28.1071 24.2031C28.1129 24.093 28.171 24.0303 28.2816 24.015L75.9848 21.4095ZM21.0006 26.8491C20.8185 26.2574 20.2497 25.8366 19.6304 25.8366H17.0566L15.9964 18.2838C15.9828 18.1866 16.0535 18.0958 16.1542 18.0816L34.6842 15.4805C34.7067 15.4838 34.7287 15.4884 34.7516 15.4907C34.7996 15.4954 34.8472 15.4977 34.8946 15.4977C35.104 15.4977 35.3041 15.4507 35.4857 15.368L63.4649 11.4406C63.6524 11.432 63.7678 11.519 63.8112 11.7017L64.8563 19.1467L28.1255 21.1529C26.4661 21.2434 25.1544 22.6979 25.2452 24.3594L26.0012 38.2018H24.6572L21.0006 26.8491ZM85.3254 38.2018L86.2656 28.7032H92.5069C93.9124 28.7032 95.0558 29.8496 95.0558 31.2588V38.202L85.3254 38.2018Z" fill="#050525"/>
<path d="M75.4824 85.6544C76.274 85.6544 76.9157 85.0127 76.9157 84.2212V71.1338C76.9157 70.3423 76.274 69.7006 75.4824 69.7006H22.5176C21.726 69.7006 21.0843 70.3423 21.0843 71.1338V84.2212C21.0843 85.0127 21.726 85.6544 22.5176 85.6544H75.4824ZM23.9508 72.5671H74.0492V82.7879H23.9508V72.5671Z" fill="#050525"/>
<path d="M66.5222 76.2443H31.4776C29.6245 76.2443 29.6245 79.1109 31.4776 79.1109H66.5222C68.3755 79.1109 68.3755 76.2443 66.5222 76.2443Z" fill="#050525"/>
</svg>
