<svg width="100" height="100" viewBox="0 0 100 100" fill="none" xmlns="http://www.w3.org/2000/svg">
<g clip-path="url(#clip0_930_653)">
<path d="M84.39 26.0966L64.2894 23.1757L55.2995 4.96057C53.1307 0.566692 46.8639 0.566692 44.6951 4.96057L35.7052 23.1757L15.6046 26.0966C12.2754 26.58 10.319 29.5405 10.5566 32.4551V53.7057C10.7066 54.962 11.2878 56.1975 12.3274 57.21L23.7819 68.377C23.2028 71.7509 23.313 67.9366 23.3486 92.4673C23.3548 96.7549 28.0031 99.7533 32.0176 97.6424L49.9973 88.1901L67.977 97.6424C71.9915 99.7533 76.6397 96.7549 76.646 92.4673C76.6816 67.9309 76.7918 71.7498 76.2126 68.377L87.6671 57.21C88.7068 56.1975 89.288 54.962 89.438 53.7057V32.4551C89.6755 29.5405 87.7192 26.58 84.39 26.0966Z" fill="#FFF0A6"/>
<path d="M56.1206 6.6252C55.256 7.54481 55.8187 6.65416 46.1224 26.3008L26.0218 29.2217C21.175 29.9253 19.236 35.885 22.7446 39.3074L37.2888 53.4849C33.5951 75.0214 33.5887 74.1993 33.8699 75.6397L32.0178 76.6127C27.6802 78.8938 22.6113 75.2118 23.4384 70.3792C27.4162 47.1341 26.8041 50.7544 26.8718 50.3598L12.3276 36.1823C8.81484 32.756 10.7628 26.7995 15.6048 26.0966L35.7054 23.1757L44.6953 4.96057C46.8641 0.566692 53.1309 0.566692 55.2997 4.96057L56.1206 6.6252Z" fill="#FFF8D6"/>
<path d="M89.438 32.4551V53.7058C89.288 54.962 88.7068 56.1975 87.6671 57.21L76.2126 68.377L73.123 50.3598L87.6671 36.1823C88.7672 35.1094 89.3318 33.7885 89.438 32.4551Z" fill="#FACF5F"/>
<path d="M76.646 71.4188V92.4673C76.6335 96.755 71.9915 99.7534 67.977 97.6425L49.9973 88.1901L32.0176 97.6425C28.0031 99.7534 23.3611 96.755 23.3486 92.4673V71.4188C23.3486 75.7168 27.9967 78.7273 32.0176 76.6127L49.9973 67.1603L67.977 76.6127C71.9979 78.7273 76.646 75.7168 76.646 71.4188Z" fill="#FACF5F"/>
<path d="M26.8716 50.3598L23.7819 68.377L12.3274 57.21C11.2878 56.1975 10.7066 54.962 10.5566 53.7058V32.4551C10.6628 33.7885 11.2274 35.1094 12.3274 36.1823L26.8716 50.3598Z" fill="#FACF5F"/>
<path d="M89.4378 42.8958C88.5174 42.8958 87.7711 43.6421 87.7711 44.5625V53.5986C87.6428 54.4987 87.2057 55.3333 86.5038 56.0175L77.3189 64.9706L76.5672 60.5876C76.4116 59.6803 75.5497 59.0709 74.6428 59.2265C73.7357 59.3821 73.1263 60.2436 73.2819 61.1509L74.913 70.6616C75.5074 74.1274 71.8806 76.7833 68.752 75.1378L50.7732 65.6859C50.2877 65.4304 49.7075 65.4304 49.2221 65.6859L31.2432 75.1378C28.1248 76.7772 24.4855 74.1409 25.0822 70.6616L28.5156 50.6419C28.6083 50.1012 28.4292 49.5496 28.0362 49.1666L13.491 34.9885C10.9755 32.5366 12.341 28.2548 15.8444 27.7456L35.9452 24.8247C36.4879 24.7457 36.9573 24.4049 37.2 23.913L46.1893 5.69848C47.7487 2.53881 52.243 2.53339 53.8051 5.69848L62.7943 23.913C63.037 24.4049 63.5064 24.7459 64.0492 24.8247L84.15 27.7456C87.6376 28.2523 89.0299 32.5255 86.5034 34.9885L71.9584 49.1666C71.2992 49.8091 71.2856 50.8644 71.9281 51.5236C72.5702 52.1828 73.6259 52.1963 74.2851 51.5538L88.8301 37.3757C93.3277 32.9918 90.842 25.3499 84.6293 24.4469L65.3957 21.6521L56.7942 4.22323C54.0143 -1.40902 45.9784 -1.40631 43.2 4.22323L34.5985 21.6521L15.365 24.4467C11.3214 25.0345 8.63254 28.6098 8.89088 32.4701C8.89068 32.4911 8.88297 53.747 8.90193 53.9041C9.10485 55.6035 9.88716 57.1596 11.1641 58.4044L14.9171 62.0626C15.2413 62.3787 15.6609 62.5358 16.0803 62.5358C17.5657 62.5358 18.3141 60.7188 17.2438 59.6755L13.4908 56.017C12.7889 55.3329 12.3518 54.4982 12.2235 53.5984V38.408L25.0818 50.9419C21.5065 71.7877 21.7044 70.4033 21.6888 71.2625C21.6792 71.3948 21.6494 69.8054 21.6825 92.4721C21.6906 98.0566 27.711 101.789 32.7939 99.1173L49.9971 90.073L67.2003 99.1173C72.2786 101.787 78.2954 98.0639 78.3117 92.4673V82.8703C78.3117 81.9499 77.5654 81.2036 76.645 81.2036C75.7245 81.2036 74.9782 81.9499 74.9782 82.8703V92.4625C74.9695 95.4784 71.68 97.707 68.7514 96.1668L65.3267 94.3663V83.7962C65.3267 82.8757 64.5804 82.1295 63.66 82.1295C62.7395 82.1295 61.9933 82.8757 61.9933 83.7962V92.6139L51.6636 87.1834V79.4025C51.6636 78.4821 50.9173 77.7358 49.9969 77.7358C49.0764 77.7358 48.3302 78.4821 48.3302 79.4025V87.1834L38.0005 92.6139V83.7962C38.0005 82.8757 37.2542 82.1295 36.3338 82.1295C35.4133 82.1295 34.6671 82.8757 34.6671 83.7962V94.3663L31.2424 96.1668C28.331 97.6974 25.0245 95.4999 25.0155 92.4673V77.6481C27.3748 79.2504 30.3219 79.3877 32.7935 78.0883L49.9967 69.0441L67.1999 78.0883C72.759 81.0107 79.259 76.2864 78.1975 70.0979L78.0021 68.9585L88.8297 58.4042C90.1068 57.1594 90.8891 55.6033 91.0918 53.9039C91.1102 53.753 91.1037 54.3078 91.1037 44.5623C91.1045 43.6419 90.3583 42.8958 89.4378 42.8958Z" fill="#050525"/>
</g>
<defs>
<clipPath id="clip0_930_653">
<rect width="100" height="100" fill="white"/>
</clipPath>
</defs>
</svg>
