<svg width="100" height="100" viewBox="0 0 100 100" fill="none" xmlns="http://www.w3.org/2000/svg">
<path d="M24.0588 39.9638V1.62042H75.94V39.9638" fill="#EFEFEF"/>
<path d="M24.0588 39.9638V29.8648H75.94V39.9638" fill="#E0E0E0"/>
<path d="M76.2337 84.4985H90.3228C94.8475 84.4985 98.5149 80.8311 98.5149 76.3084V43.2034C98.5149 38.6806 94.8475 35.0133 90.3228 35.0133H9.67527C5.1525 35.0133 1.48517 38.6806 1.48517 43.2034V76.3084C1.48517 80.8311 5.1525 84.4985 9.67527 84.4985H23.7644" fill="#494F56"/>
<path d="M9.00992 76.3084V43.2034C9.00992 38.6806 12.6772 35.0133 17.2 35.0133H9.67527C5.1525 35.0133 1.48517 38.6806 1.48517 43.2034V76.3084C1.48517 80.8311 5.1525 84.4985 9.67527 84.4985H17.2C12.6772 84.4985 9.00992 80.8311 9.00992 76.3084Z" fill="#36393D"/>
<path d="M75.0911 73.8252H82.4753V57.9836H17.5248V73.8252H24.9089" fill="#36393D"/>
<path d="M77.7228 98.3796H22.2761L25.8571 64.9868H74.1416L77.7228 98.3796Z" fill="#EFEFEF"/>
<path d="M12.7723 51.4491C15.6157 51.4491 17.9208 49.1441 17.9208 46.3006C17.9208 43.4572 15.6157 41.1521 12.7723 41.1521C9.92885 41.1521 7.62378 43.4572 7.62378 46.3006C7.62378 49.1441 9.92885 51.4491 12.7723 51.4491Z" fill="#04E3E0"/>
<path d="M28.2179 51.4491C31.0613 51.4491 33.3664 49.1441 33.3664 46.3006C33.3664 43.4572 31.0613 41.1521 28.2179 41.1521C25.3744 41.1521 23.0693 43.4572 23.0693 46.3006C23.0693 49.1441 25.3744 51.4491 28.2179 51.4491Z" fill="#E83D6C"/>
<path d="M24.0588 31.8543C24.8792 31.8543 25.544 31.1893 25.544 30.3691V3.10555H74.4549V30.3693C74.4549 31.1895 75.1196 31.8545 75.94 31.8545C76.7604 31.8545 77.4252 31.1895 77.4252 30.3693V1.6204C77.4252 0.800204 76.7604 0.135254 75.94 0.135254H24.0588C23.2384 0.135254 22.5737 0.800204 22.5737 1.6204V30.3693C22.5737 31.1893 23.2384 31.8543 24.0588 31.8543Z" fill="#050525"/>
<path d="M75.7945 66.4719H77.8135C78.6339 66.4719 79.2986 65.8069 79.2986 64.9867C79.2986 64.1665 78.6339 63.5016 77.8135 63.5016H22.1852C21.3648 63.5016 20.7 64.1665 20.7 64.9867C20.7 65.8069 21.3648 66.4719 22.1852 66.4719H24.2042L21.7089 89.7402C21.6216 90.5558 22.2117 91.2877 23.0271 91.3753C23.8473 91.4636 24.5747 90.8723 24.6622 90.057L27.1913 66.4721H72.8071L76.0697 96.8949H23.9289L24.1307 95.0145C24.2182 94.199 23.6281 93.4669 22.8125 93.3794C21.9992 93.2923 21.265 93.8822 21.1774 94.6976L20.7994 98.2216C20.7543 98.6406 20.8897 99.059 21.1713 99.3727C21.4531 99.6861 21.8547 99.8652 22.2761 99.8652H77.7228C78.1442 99.8652 78.5458 99.6861 78.8275 99.3727C79.1091 99.0592 79.2444 98.6408 79.1994 98.2216L75.7945 66.4719Z" fill="#050525"/>
<path d="M18.8135 83.0133H9.67505C5.97802 83.0133 2.9703 80.0056 2.9703 76.3083V43.2034C2.9703 39.5064 5.97802 36.4984 9.67505 36.4984H82.2772C83.0976 36.4984 83.7624 35.8335 83.7624 35.0133C83.7624 34.1931 83.0976 33.5281 82.2772 33.5281H9.67505C4.3402 33.5281 0 37.8685 0 43.2034V76.3083C0 81.6432 4.3402 85.9836 9.67505 85.9836H18.8133C19.6337 85.9836 20.2984 85.3186 20.2984 84.4984C20.2984 83.6782 19.6337 83.0133 18.8135 83.0133Z" fill="#050525"/>
<path d="M90.3228 33.5281H87.2279C86.4075 33.5281 85.7428 34.1931 85.7428 35.0133C85.7428 35.8335 86.4075 36.4984 87.2279 36.4984H90.3228C94.021 36.4984 97.0297 39.5062 97.0297 43.2034V76.3083C97.0297 80.0054 94.021 83.0133 90.3228 83.0133H81.1846C80.3642 83.0133 79.6994 83.6782 79.6994 84.4984C79.6994 85.3186 80.3642 85.9836 81.1846 85.9836H90.3228C95.6588 85.9836 100 81.6434 100 76.3083V43.2034C100 37.8685 95.6588 33.5281 90.3228 33.5281Z" fill="#050525"/>
<path d="M80.042 72.34C79.2216 72.34 78.5568 73.0049 78.5568 73.8251C78.5568 74.6453 79.2216 75.3103 80.042 75.3103H82.4753C83.2957 75.3103 83.9604 74.6453 83.9604 73.8251V57.9836C83.9604 57.1634 83.2957 56.4984 82.4753 56.4984H17.5248C16.7044 56.4984 16.0396 57.1634 16.0396 57.9836V73.8251C16.0396 74.6453 16.7044 75.3103 17.5248 75.3103H19.958C20.7784 75.3103 21.4432 74.6453 21.4432 73.8251C21.4432 73.0049 20.7784 72.34 19.958 72.34H19.0099V59.4687H80.9901V72.34H80.042Z" fill="#050525"/>
<path d="M19.4059 46.3006C19.4059 42.6428 16.4301 39.6669 12.7723 39.6669C9.11445 39.6669 6.13861 42.6428 6.13861 46.3006C6.13861 49.9584 9.11445 52.9343 12.7723 52.9343C16.4301 52.9343 19.4059 49.9584 19.4059 46.3006ZM12.7723 49.964C10.7523 49.964 9.10891 48.3206 9.10891 46.3006C9.10891 44.2806 10.7523 42.6372 12.7723 42.6372C14.7923 42.6372 16.4356 44.2806 16.4356 46.3006C16.4356 48.3206 14.7923 49.964 12.7723 49.964Z" fill="#050525"/>
<path d="M34.8515 46.3006C34.8515 42.6428 31.8757 39.6669 28.2178 39.6669C24.56 39.6669 21.5842 42.6428 21.5842 46.3006C21.5842 49.9584 24.56 52.9343 28.2178 52.9343C31.8757 52.9343 34.8515 49.9584 34.8515 46.3006ZM24.5545 46.3006C24.5545 44.2806 26.1978 42.6372 28.2178 42.6372C30.2378 42.6372 31.8812 44.2806 31.8812 46.3006C31.8812 48.3206 30.2378 49.964 28.2178 49.964C26.1978 49.964 24.5545 48.3206 24.5545 46.3006Z" fill="#050525"/>
<path d="M29.2073 89.6667C29.2073 90.4869 29.8721 91.1519 30.6925 91.1519H69.3064C70.1267 91.1519 70.7915 90.4869 70.7915 89.6667C70.7915 88.8465 70.1267 88.1816 69.3064 88.1816H30.6925C29.8721 88.1816 29.2073 88.8465 29.2073 89.6667Z" fill="#050525"/>
<path d="M30.1475 82.9341C30.1475 83.7543 30.8123 84.4192 31.6327 84.4192H68.3659C69.1863 84.4192 69.8511 83.7543 69.8511 82.9341C69.8511 82.1139 69.1863 81.4489 68.3659 81.4489H31.6327C30.8125 81.4489 30.1475 82.1139 30.1475 82.9341Z" fill="#050525"/>
<path d="M67.5738 77.6865C68.3942 77.6865 69.059 77.0216 69.059 76.2014C69.059 75.3812 68.3942 74.7162 67.5738 74.7162H32.4247C31.6043 74.7162 30.9396 75.3812 30.9396 76.2014C30.9396 77.0216 31.6043 77.6865 32.4247 77.6865H67.5738Z" fill="#050525"/>
</svg>
