<svg width="100" height="100" viewBox="0 0 100 100" fill="none" xmlns="http://www.w3.org/2000/svg">
<g clip-path="url(#clip0_864_593)">
<path d="M61.3248 77.6695H38.6752V93.5133H61.3248V77.6695Z" fill="#DFE3EC"/>
<path d="M53.2357 77.6695V84.4199C53.2357 85.0672 52.7111 85.5918 52.0638 85.5918H47.9363C47.289 85.5918 46.7644 85.0672 46.7644 84.4199V77.6695H53.2357Z" fill="#9FACB9"/>
<path d="M7.9363 11.1711C4.36228 11.1711 1.46521 14.0683 1.46521 17.6422V72.6496C1.46521 76.2234 4.36248 79.1207 7.9363 79.1207H92.0636C95.6377 79.1207 98.5349 76.2234 98.5349 72.6496V17.6422C98.5349 14.0682 95.6377 11.1711 92.0636 11.1711H7.9363Z" fill="#0B4963"/>
<path d="M92.0637 11.1711H87.9621C91.5359 11.1711 94.4332 14.0683 94.4332 17.6422V72.6496C94.4332 76.2234 91.5359 79.1207 87.9621 79.1207H92.0637C95.6375 79.1207 98.5348 76.2234 98.5348 72.6496V17.6422C98.5348 14.0683 95.6375 11.1711 92.0637 11.1711Z" fill="#0B4963"/>
<path d="M92.0639 65.0062V18.8145C92.0639 18.1672 91.5393 17.6426 90.892 17.6426H9.108C8.46074 17.6426 7.93613 18.1672 7.93613 18.8145V65.0061C7.93613 65.6533 8.46074 66.1779 9.108 66.1779H90.892C91.5393 66.1781 92.0639 65.6533 92.0639 65.0062Z" fill="#03CDFE"/>
<path d="M90.892 17.6426H86.7904C87.4377 17.6426 87.9623 18.1672 87.9623 18.8145V65.0061C87.9623 65.6533 87.4377 66.1779 86.7904 66.1779H90.892C91.5392 66.1779 92.0638 65.6533 92.0638 65.0061V18.8145C92.0638 18.1674 91.5392 17.6426 90.892 17.6426Z" fill="#03CDFE"/>
<path d="M1.46503 66.1781V72.6494C1.46503 76.2232 4.36229 79.1205 7.93612 79.1205H92.0635C95.6373 79.1205 98.5346 76.2232 98.5346 72.6494V66.1781H1.46503Z" fill="#C5D3DD"/>
<path d="M74.7139 92.0635H25.2863C24.6391 92.0635 24.1144 92.5881 24.1144 93.2354V97.3627C24.1144 98.01 24.6391 98.5346 25.2863 98.5346H74.7139C75.3611 98.5346 75.8857 98.01 75.8857 97.3627V93.2354C75.8857 92.5883 75.3611 92.0635 74.7139 92.0635Z" fill="#C5D3DD"/>
<path d="M75.8853 18.1291V66.1781H24.1146V2.6373C24.1146 1.99003 24.6392 1.46542 25.2865 1.46542H59.2213C59.532 1.46542 59.8301 1.58886 60.05 1.80859L75.542 17.3004C75.7617 17.5203 75.8853 17.8184 75.8853 18.1291Z" fill="white"/>
<path d="M68.2424 33.8219H31.758C31.1107 33.8219 30.5861 33.2973 30.5861 32.65V28.5225C30.5861 27.8752 31.1107 27.3506 31.758 27.3506H68.2422C68.8894 27.3506 69.4141 27.8752 69.4141 28.5225V32.65C69.4141 33.2971 68.8894 33.8219 68.2424 33.8219Z" fill="#9FACB9"/>
<path d="M68.2424 46.7644H31.758C31.1107 46.7644 30.5861 46.2398 30.5861 45.5926V41.465C30.5861 40.8178 31.1107 40.2932 31.758 40.2932H68.2422C68.8894 40.2932 69.4141 40.8178 69.4141 41.465V45.5926C69.4141 46.2398 68.8894 46.7644 68.2424 46.7644Z" fill="#9FACB9"/>
<path d="M75.542 17.3004L60.0502 1.80858C59.9502 1.70858 59.8332 1.62967 59.707 1.57205V5.56697L71.4406 17.3006C71.6603 17.5203 71.7838 17.8183 71.7838 18.1293V66.1783H75.8853V18.1291C75.8853 17.8183 75.7619 17.5203 75.542 17.3004Z" fill="#C5D3DD"/>
<path d="M61.7709 59.7074H38.2293C37.582 59.7074 37.0574 59.1828 37.0574 58.5355V54.4078C37.0574 53.7605 37.582 53.2359 38.2293 53.2359H61.7709C62.4181 53.2359 62.9428 53.7605 62.9428 54.4078V58.5355C62.9428 59.1826 62.4181 59.7074 61.7709 59.7074Z" fill="#9FACB9"/>
<path d="M75.542 17.3004L60.0502 1.80858C59.9502 1.70858 59.8332 1.62967 59.707 1.57205V16.4719C59.707 17.1191 60.2316 17.6437 60.8789 17.6437H75.7787C75.7211 17.5174 75.6422 17.4006 75.542 17.3004Z" fill="#9FACB9"/>
<path d="M94.4332 72.6496C94.4332 76.2234 91.5359 79.1207 87.9621 79.1207H92.0637C95.6375 79.1207 98.5348 76.2234 98.5348 72.6496V66.1783H94.4332V72.6496Z" fill="#869FB6"/>
<path d="M74.7139 92.0635H70.6123C71.2596 92.0635 71.7842 92.5881 71.7842 93.2354V97.3627C71.7842 98.01 71.2596 98.5346 70.6123 98.5346H74.7139C75.3611 98.5346 75.8857 98.01 75.8857 97.3627V93.2354C75.8857 92.5883 75.3611 92.0635 74.7139 92.0635Z" fill="#869FB6"/>
<path d="M100 66.1781C100 66.1756 99.9996 66.173 99.9996 66.1705V17.6422C99.9996 13.2662 96.4397 9.70626 92.0637 9.70626H70.0193L60.743 0.429889C60.6967 0.3836 60.6463 0.341608 60.5941 0.301764C60.5826 0.292975 60.5711 0.284186 60.5594 0.275787C60.5072 0.238287 60.4531 0.203522 60.3961 0.173053C60.3922 0.170905 60.3881 0.169342 60.3842 0.167389C60.3303 0.139264 60.2742 0.115045 60.2166 0.0937561C60.2051 0.0894592 60.1937 0.0851623 60.1822 0.0810608C60.1209 0.059967 60.0584 0.0419983 59.9938 0.0291077C59.9918 0.028717 59.9898 0.0285217 59.9879 0.0281311C59.9285 0.0166077 59.8678 0.00977173 59.8061 0.00547485C59.7895 0.00430298 59.7729 0.00352173 59.7562 0.00293579C59.7396 0.00234985 59.7234 0.000396729 59.7068 0.000396729H24.1146C23.3057 0.000396729 22.6498 0.656256 22.6498 1.46524V9.70606H7.93633C3.56035 9.70606 0.000390625 13.2662 0.000390625 17.642V66.1723C0.000390625 66.1742 0 66.176 0 66.1779C0 66.1799 0.000195313 66.1816 0.000390625 66.1836V72.6492C0.000390625 77.0252 3.56055 80.5852 7.93633 80.5852H13.0957C13.9047 80.5852 14.5605 79.9293 14.5605 79.1203C14.5605 78.3113 13.9047 77.6555 13.0957 77.6555H7.93633C5.17578 77.6555 2.93008 75.4096 2.93008 72.6492V67.6428H24.1148H75.8854H97.0699V72.6492C97.0699 75.4098 94.8242 77.6555 92.0637 77.6555H61.3287C61.3273 77.6555 61.3262 77.6553 61.325 77.6553C61.3238 77.6553 61.3225 77.6555 61.3213 77.6555H38.6789C38.6775 77.6555 38.6764 77.6553 38.6752 77.6553C38.674 77.6553 38.6727 77.6555 38.6715 77.6555H18.9551C18.1461 77.6555 17.4902 78.3113 17.4902 79.1203C17.4902 79.9293 18.1461 80.5852 18.9551 80.5852H37.2104V90.5984H24.1143C23.3053 90.5984 22.6494 91.2543 22.6494 92.0633V98.5344C22.6494 99.3434 23.3053 99.9992 24.1143 99.9992H75.8855C76.6945 99.9992 77.3504 99.3434 77.3504 98.5344V92.0633C77.3504 91.2543 76.6945 90.5984 75.8855 90.5984H62.7896V80.5852H92.0635C96.4395 80.5852 99.9994 77.025 99.9994 72.6492V66.1854C99.9996 66.1832 100 66.1807 100 66.1781ZM48.2293 80.5855H51.7709V84.1272H48.2293V80.5855ZM74.4209 97.0697H25.5793V93.5283H74.4209V97.0697ZM59.86 90.5988H40.1402V80.5855H45.2996V85.592C45.2996 86.401 45.9555 87.0568 46.7645 87.0568H53.2357C54.0447 87.0568 54.7006 86.401 54.7006 85.592V80.5855H59.8602V90.5988H59.86ZM61.1717 5.00176L68.3766 12.2066C68.3768 12.2068 68.377 12.207 68.3772 12.207L72.3488 16.1787H61.1717V5.00176ZM22.6498 64.7133H9.40098V19.1074H22.65L22.6498 64.7133ZM2.93008 17.6422C2.93008 14.8816 5.17578 12.6359 7.93633 12.6359H22.6498V16.1777H7.93613C7.12715 16.1777 6.47129 16.8336 6.47129 17.6426V64.7133H2.93008V17.6422ZM25.5795 64.7133V2.93028H58.242V17.6438C58.242 18.4527 58.8979 19.1086 59.7068 19.1086H74.4205V64.7135H25.5795V64.7133ZM90.599 64.7133H77.3502V19.1074H90.599V64.7133ZM93.5287 64.7133V17.6426C93.5287 16.8336 92.8729 16.1777 92.0639 16.1777H76.491L72.9492 12.6359H92.0637C94.8242 12.6359 97.0699 14.8818 97.0699 17.6422V64.7133H93.5287Z" fill="#050525"/>
<path d="M53.2358 74.1143C54.0447 74.1143 54.7006 73.4584 54.7006 72.6494C54.7006 71.8404 54.0447 71.1846 53.2358 71.1846H46.7645C45.9555 71.1846 45.2996 71.8404 45.2996 72.6494C45.2996 73.4584 45.9555 74.1143 46.7645 74.1143H53.2358Z" fill="#050525"/>
<path d="M30.5861 19.1084H40.2932C41.1021 19.1084 41.758 18.4525 41.758 17.6436V7.93652C41.758 7.12754 41.1021 6.47168 40.2932 6.47168H30.5861C29.7771 6.47168 29.1213 7.12754 29.1213 7.93652V17.6436C29.1213 18.4525 29.7771 19.1084 30.5861 19.1084ZM32.051 9.40156H38.8283V16.1789H32.051V9.40156Z" fill="#050525"/>
<path d="M69.4141 25.8856H30.5861C29.7771 25.8856 29.1213 26.5414 29.1213 27.3504V33.8219C29.1213 34.6309 29.7771 35.2867 30.5861 35.2867H69.4141C70.223 35.2867 70.8789 34.6309 70.8789 33.8219V27.3504C70.8789 26.5414 70.223 25.8856 69.4141 25.8856ZM67.9492 32.357H32.051V28.8152H67.9492V32.357Z" fill="#050525"/>
<path d="M69.4141 38.8283H30.5861C29.7771 38.8283 29.1213 39.4842 29.1213 40.2932V46.7645C29.1213 47.5735 29.7771 48.2293 30.5861 48.2293H69.4141C70.223 48.2293 70.8789 47.5735 70.8789 46.7645V40.2932C70.8789 39.4842 70.223 38.8283 69.4141 38.8283ZM67.9492 45.2996H32.051V41.758H67.9492V45.2996Z" fill="#050525"/>
<path d="M62.9428 51.7711H37.0574C36.2484 51.7711 35.5926 52.4269 35.5926 53.2359V59.7072C35.5926 60.5162 36.2484 61.1721 37.0574 61.1721H62.9428C63.7518 61.1721 64.4076 60.5162 64.4076 59.7072V53.2359C64.4076 52.4269 63.7518 51.7711 62.9428 51.7711ZM61.4779 58.2424H38.5223V54.7008H61.4779V58.2424Z" fill="#050525"/>
</g>
<defs>
<clipPath id="clip0_864_593">
<rect width="100" height="100" fill="white"/>
</clipPath>
</defs>
</svg>
