<svg width="107" height="107" viewBox="0 0 107 107" fill="none" xmlns="http://www.w3.org/2000/svg">
<path fill-rule="evenodd" clip-rule="evenodd" d="M18.0746 7.87645C17.6962 8.11895 17.4133 8.49779 17.2812 8.93917L17.0757 9.62522L15.738 9.813C12.4062 10.2809 9.61046 12.6997 8.75381 15.8555C8.58175 16.4898 8.53996 25.1879 8.56812 54.5732C8.60392 91.9927 8.60901 92.4868 8.96929 93.5659C9.7311 95.8478 11.1773 97.4343 13.6324 98.6813L15.0185 99.3854L26.0597 99.4363C38.3191 99.4926 37.8664 99.5344 38.4545 98.2941C38.8349 97.4919 38.707 96.7718 38.0793 96.1816L37.62 95.7497L26.9603 95.6588L16.3008 95.5679L15.1373 94.9367C13.8432 94.2351 13.1072 93.3714 12.778 92.1682C12.6163 91.5777 12.5767 82.2566 12.6155 54.0302L12.6671 16.6735L13.1213 15.8717C13.7863 14.6979 14.666 14.0704 16.0401 13.7899L17.2093 13.5512L17.3001 34.0179C17.3873 53.6672 17.4049 54.5174 17.7391 55.3027C18.6666 57.4826 19.3724 58.1091 25.476 62.169C28.4238 64.1299 35.128 68.5928 40.3742 72.0865C45.6204 75.5802 50.4405 78.6885 51.0855 78.9939C52.1405 79.4934 52.4321 79.5487 53.9924 79.546C56.7333 79.5409 54.723 80.7169 75.4335 67.0036C86.206 59.8707 87.1199 59.2336 88.4342 57.9386C89.5652 56.824 90.1927 55.7421 90.5123 54.3558C90.6252 53.867 90.6938 46.0877 90.6967 33.5108L90.7011 13.4458L91.4629 13.5678C92.492 13.7325 93.9151 14.5336 94.4687 15.2596C95.4625 16.5632 95.4084 14.3323 95.4169 54.3152C95.4258 95.7526 95.5249 92.6503 94.1506 94.0253C93.7607 94.4154 93.0906 94.9222 92.6617 95.1514L91.8821 95.5679L81.1339 95.6213L70.3857 95.6748L69.9192 96.1416C69.3029 96.7582 69.1465 97.6342 69.5224 98.3617C70.1583 99.5921 69.5867 99.5379 81.4693 99.4921C91.4162 99.4537 92.2805 99.4255 93.3125 99.1063C96.0575 98.2576 98.2074 96.1256 99.172 93.2956C99.501 92.3303 99.5127 90.9913 99.5098 54.5756C99.5069 19.9991 99.4814 16.767 99.2053 15.7957C98.2897 12.5763 95.3755 10.0973 92.2718 9.89808L90.9464 9.81282L90.7385 9.03497C90.5859 8.46453 90.3661 8.15531 89.9131 7.87536C88.8332 7.20749 88.2304 7.34837 86.0697 8.7732L84.129 10.0531L71.8756 10.0422C63.0633 10.0344 59.509 10.0893 59.2188 10.2378C57.8015 10.9637 57.8622 12.8804 59.3291 13.7206C59.6232 13.8893 62.0582 13.9699 68.8988 14.0377L78.074 14.1286L74.6219 16.4865C67.1116 21.6163 65.3452 22.7671 65.0834 22.7011C64.8394 22.6397 59.3076 18.8026 52.005 13.6296C48.5858 11.2075 47.9637 10.8374 46.5778 10.4016C45.4785 10.0559 44.9123 10.0384 34.751 10.0384H24.0788L22.9311 9.29619C19.9727 7.38309 19.198 7.15659 18.0746 7.87645ZM28.5283 17.9442C30.4968 19.2429 36.5837 23.2707 42.0548 26.8949L52.0021 33.484V54.2205C52.0021 65.6255 51.9408 74.9187 51.8658 74.8718C51.7908 74.825 49.2359 73.1292 46.1881 71.1032C38.8522 66.2266 29.1853 59.8288 25.5283 57.4297C23.3201 55.9811 22.456 55.3058 22.0763 54.7317L21.5697 53.966L21.4789 37.774C21.4289 28.8682 21.41 19.723 21.4369 17.4514L21.4856 13.3211L23.2174 14.452C24.1698 15.0738 26.5597 16.6454 28.5283 17.9442ZM86.4308 53.6052C86.2796 54.1256 85.9339 54.8153 85.6626 55.138C85.3913 55.4605 83.4911 56.8284 81.4399 58.1774C79.3888 59.5266 72.986 63.7709 67.2117 67.6093C61.4374 71.4477 56.5931 74.6342 56.4468 74.6903C56.2143 74.7796 56.1808 72.2015 56.1808 54.1685V33.5444L61.393 30.1081C64.2598 28.2181 71.107 23.6739 76.6092 20.0098L86.6132 13.348L86.6593 33.0036C86.6997 50.1067 86.67 52.7819 86.4308 53.6052ZM45.9156 14.4776C46.4152 14.7177 47.8642 15.6372 49.1353 16.521C54.5829 20.3083 59.9617 24.0213 60.6834 24.4926C61.1112 24.772 61.4383 25.0671 61.4101 25.1481C61.346 25.333 54.3783 30.0347 54.1687 30.0347C54.0315 30.0347 47.525 25.7582 34.6965 17.2363C32.3233 15.6597 30.3815 14.2951 30.3815 14.2038C30.3815 14.1062 33.3998 14.0384 37.6943 14.0395L45.0072 14.0413L45.9156 14.4776ZM18.9118 59.9718C17.6993 60.7248 17.0174 62.8889 17.4649 64.5633C18.0483 66.7458 18.6944 67.4151 22.9327 70.229C24.6813 71.3899 31.5079 75.9261 38.1031 80.3097C44.6983 84.6932 50.544 88.4656 51.0936 88.6928C51.9158 89.0328 52.431 89.106 54.0006 89.106C56.9993 89.106 55.0953 90.2089 75.6722 76.5514C81.7898 72.4911 87.2976 68.7958 87.9122 68.3393C89.9844 66.8009 90.9242 64.7124 90.5365 62.5081C90.319 61.2719 89.9653 60.6857 89.0677 60.0745C88.3354 59.5759 87.6114 59.5517 87.049 60.0074C86.6675 60.3167 86.6172 60.541 86.5245 62.3483C86.4622 63.5668 86.331 64.4572 86.1888 64.6286C86.0603 64.7835 84.1003 66.1187 81.8328 67.5957C79.5656 69.0728 73.0095 73.4277 67.2637 77.2731C61.5178 81.1188 56.4733 84.4174 56.0537 84.6038C55.1937 84.9855 53.1249 85.0798 52.3276 84.7737C51.7664 84.5581 52.1073 84.7821 38.2848 75.5507C32.589 71.7467 26.6101 67.7615 24.9985 66.6947C23.3868 65.628 21.956 64.6202 21.819 64.4553C21.6591 64.2632 21.5358 63.4739 21.4753 62.255C21.3899 60.5417 21.3386 60.3205 20.9554 60.01C20.4366 59.5897 19.5539 59.5732 18.9118 59.9718ZM18.7416 70.1561C17.9011 70.8636 17.4902 71.8936 17.4876 73.2993C17.4836 75.4404 18.7819 77.366 21.3739 79.0632C22.0812 79.5263 28.7301 83.9448 36.1493 88.8819C43.5684 93.8191 50.1908 98.1203 50.8658 98.4403C52.0164 98.9856 52.2174 99.0216 54.0914 99.0193C55.9012 99.0171 56.2015 98.9671 57.271 98.4895C57.9205 98.1996 60.2097 96.784 62.3581 95.3439C64.5066 93.9038 71.0064 89.5612 76.8022 85.6937C88.303 78.0194 89.6195 76.9915 90.2171 75.2212C90.6502 73.9376 90.6115 72.219 90.1262 71.1861C89.4745 69.7987 87.9989 69.2359 87.0432 70.0103C86.6611 70.3197 86.6035 70.5537 86.5067 72.1912C86.4213 73.6325 86.3238 74.1092 86.0514 74.4169C85.8608 74.6324 84.3966 75.6829 82.7978 76.7516C81.1989 77.8205 75.8029 81.4358 70.8065 84.7857C65.8102 88.1357 60.4959 91.697 58.997 92.6999C56.0115 94.6975 55.4964 94.9316 54.0873 94.9316C52.6636 94.9316 51.9256 94.5895 48.8803 92.5177C47.3496 91.4765 40.7421 87.0486 34.1969 82.6779C27.6517 78.3075 22.1126 74.5275 21.8877 74.2779C21.529 73.8799 21.4789 73.6282 21.4789 72.223C21.4789 70.8781 21.4186 70.5449 21.1023 70.1426C20.5761 69.4733 19.5457 69.4791 18.7416 70.1561Z" fill="#385661"/>
</svg>
