<svg width="112" height="112" viewBox="0 0 112 112" fill="none" xmlns="http://www.w3.org/2000/svg">
    <path d="M85.0762 79.4172C89.5648 73.844 92.354 67.1022 93.1191 59.9969C93.1595 59.6217 92.8813 59.2897 92.5055 59.2562V59.2562C92.1296 59.2227 91.7984 59.5003 91.7577 59.8755C91.0168 66.7115 88.331 73.1973 84.012 78.56C79.55 84.1002 73.5453 88.1928 66.7574 90.3204C59.9694 92.4479 52.703 92.5148 45.877 90.5126C39.0511 88.5104 32.9721 84.529 28.4088 79.072C23.8456 73.6149 21.0031 66.9272 20.2407 59.8546C19.4783 52.782 20.8303 45.6422 24.1257 39.338C27.4211 33.0337 32.5119 27.8483 38.7544 24.4374C44.7968 21.1357 51.6556 19.6402 58.5149 20.121C58.8913 20.1474 59.2232 19.8706 59.2567 19.4947V19.4947C59.2902 19.1189 59.0127 18.7863 58.6363 18.7597C51.5078 18.255 44.3788 19.807 38.0991 23.2382C31.6195 26.7787 26.3352 32.1612 22.9146 38.7049C19.494 45.2486 18.0907 52.6598 18.882 60.0011C19.6734 67.3424 22.6239 74.2841 27.3605 79.9486C32.0972 85.613 38.4071 89.7456 45.4924 91.8239C52.5777 93.9021 60.1202 93.8327 67.1661 91.6243C74.2119 89.4159 80.4447 85.1678 85.0762 79.4172Z"
          stroke="#6000ED" stroke-width="5"/>
</svg>
