<svg width="30" height="30" viewBox="0 0 30 30" fill="none" xmlns="http://www.w3.org/2000/svg">
<path fill-rule="evenodd" clip-rule="evenodd" d="M16.4075 17.8998C19.0492 17.1699 20.9891 14.749 20.9891 11.875C20.9891 8.42322 18.1908 5.625 14.7391 5.625C11.2873 5.625 8.48907 8.42322 8.48907 11.875C8.48907 14.8121 10.5151 17.2761 13.2458 17.9455C10.6289 18.4625 8.23623 20.1882 7.08185 23.1504L6.98152 23.4079C6.88126 23.6652 7.00855 23.955 7.26585 24.0553C7.52315 24.1556 7.81301 24.0283 7.91327 23.771L8.0136 23.5135C10.5212 17.0788 19.7121 17.2453 22.0817 23.7603C22.1761 24.0198 22.463 24.1537 22.7225 24.0593C22.982 23.9649 23.1158 23.678 23.0215 23.4185C21.8589 20.2221 19.2361 18.371 16.4075 17.8998ZM14.7391 16.989C11.9147 16.989 9.62503 14.6994 9.62503 11.875C9.62503 9.05059 11.9147 6.76096 14.7391 6.76096C17.5635 6.76096 19.8531 9.05059 19.8531 11.875C19.8531 14.6994 17.5635 16.989 14.7391 16.989Z" fill="black"/>
</svg>
