<svg width="22" height="22" viewBox="0 0 22 22" fill="none" xmlns="http://www.w3.org/2000/svg">
<path d="M10.5487 2.1067C10.7299 1.72713 11.2701 1.72714 11.4513 2.1067L13.4832 6.36489C13.7018 6.82316 14.1375 7.13968 14.6409 7.20604L19.3186 7.82265C19.7355 7.87761 19.9025 8.39145 19.5975 8.68099L16.1756 11.9293C15.8073 12.2789 15.6409 12.791 15.7334 13.2903L16.5924 17.9296C16.669 18.3431 16.2319 18.6607 15.8623 18.4601L11.7155 16.2094C11.2693 15.9672 10.7307 15.9672 10.2845 16.2094L6.13772 18.4601C5.7681 18.6607 5.331 18.3431 5.40757 17.9296L6.26663 13.2903C6.35908 12.791 6.19267 12.2789 5.82441 11.9293L2.40252 8.68099C2.0975 8.39145 2.26446 7.87761 2.68141 7.82265L7.35909 7.20604C7.8625 7.13968 8.29816 6.82316 8.51683 6.36489L10.5487 2.1067Z" stroke="black"/>
<mask id="mask0_1_2404" style="mask-type:alpha" maskUnits="userSpaceOnUse" x="0" y="0" width="22" height="20">
<path d="M11 1.16101L13.7169 6.85473L13.8338 7.09965L14.1028 7.13511L20.3574 7.95959L15.782 12.303L15.5851 12.4898L15.6346 12.7566L16.7832 18.9599L11.2385 15.9506L11 15.8211L10.7615 15.9506L5.21679 18.9599L6.36545 12.7566L6.41486 12.4898L6.21804 12.303L1.64257 7.95959L7.89718 7.13511L8.16623 7.09965L8.2831 6.85473L11 1.16101Z" stroke="black"/>
</mask>
<g mask="url(#mask0_1_2404)">
<circle cx="11" cy="11" r="7.7" fill="black"/>
</g>
</svg>
