<svg width="30" height="30" viewBox="0 0 30 30" fill="none" xmlns="http://www.w3.org/2000/svg">
<g id="star">
<path id="Star 1" d="M18.0876 9.12661L18.9902 8.69595L18.0876 9.12661C18.3792 9.73762 18.9601 10.1597 19.6313 10.2481L26.7401 11.1852L21.5398 16.1218L22.2282 16.8471L21.5398 16.1218C21.0487 16.5879 20.8269 17.2708 20.9501 17.9365L22.2557 24.9869L15.9537 21.5666C15.3587 21.2436 14.6407 21.2436 14.0456 21.5666L7.74368 24.9869L9.04921 17.9365C9.17248 17.2708 8.9506 16.5879 8.45959 16.1218L3.25922 11.1852L10.3681 10.2481C11.0393 10.1597 11.6201 9.73762 11.9117 9.12661L14.9997 2.65528L18.0876 9.12661Z" fill="white" stroke="#550FDA" stroke-width="2"/>
<g id="Mask group">
<mask id="mask0_2864_2031" style="mask-type:alpha" maskUnits="userSpaceOnUse" x="1" y="0" width="28" height="27">
<path id="Star 1_2" d="M14.9997 2.65528L18.3214 9.61644L18.5551 10.1063L19.0932 10.1772L26.7401 11.1852L21.1461 16.4955L20.7525 16.8691L20.8513 17.4028L22.2557 24.9869L15.4767 21.3077L14.9997 21.0488L14.5227 21.3077L7.74368 24.9869L9.14803 17.4028L9.24685 16.8691L8.85322 16.4955L3.25922 11.1852L10.9061 10.1772L11.4442 10.1063L11.678 9.61644L14.9997 2.65528Z" stroke="black" stroke-width="2"/>
</mask>
<g mask="url(#mask0_2864_2031)">
<path id="Ellipse 11" d="M15.0001 25.2665C20.6702 25.2665 25.2667 20.6699 25.2667 14.9998C25.2667 9.3297 20.6702 4.73315 15.0001 4.73315C9.32994 4.73315 4.7334 9.3297 4.7334 14.9998C4.7334 20.6699 9.32994 25.2665 15.0001 25.2665Z" fill="#550FDA"/>
</g>
</g>
</g>
</svg>
