<svg width="24" height="24" viewBox="0 0 24 24" fill="none" xmlns="http://www.w3.org/2000/svg">
<g id="search_icon">
<path id="icon" fill-rule="evenodd" clip-rule="evenodd" d="M14.5815 13.8744C15.4664 12.8291 16 11.4769 16 10C16 6.68629 13.3137 4 10 4C6.68629 4 4 6.68629 4 10C4 13.3137 6.68629 16 10 16C11.4769 16 12.8291 15.4664 13.8744 14.5815L18.6464 19.3536C18.8417 19.5488 19.1583 19.5488 19.3536 19.3536C19.5488 19.1583 19.5488 18.8417 19.3536 18.6464L14.5815 13.8744ZM10 15.0655C7.20243 15.0655 4.93455 12.7976 4.93455 10C4.93455 7.20243 7.20243 4.93455 10 4.93455C12.7976 4.93455 15.0655 7.20243 15.0655 10C15.0655 12.7976 12.7976 15.0655 10 15.0655Z" fill="#BABABA"/>
</g>
</svg>
